<?xml version="1.0" encoding="UTF-8"?> <svg xmlns="http://www.w3.org/2000/svg" width="369" height="18" viewBox="0 0 369 18" fill="none"><path d="M21.7 13V5.8H22.745V9.16L25.76 5.8H27.06L23.875 9.315L27.295 13H25.955L22.745 9.56V13H21.7ZM29.4738 13.15C29.0738 13.15 28.7388 13.0767 28.4688 12.93C28.1988 12.78 27.9938 12.5833 27.8538 12.34C27.7172 12.0933 27.6488 11.8233 27.6488 11.53C27.6488 11.2567 27.6972 11.0167 27.7938 10.81C27.8905 10.6033 28.0338 10.4283 28.2238 10.285C28.4138 10.1383 28.6472 10.02 28.9238 9.93C29.1638 9.86 29.4355 9.79833 29.7388 9.745C30.0422 9.69167 30.3605 9.64167 30.6938 9.595C31.0305 9.54833 31.3638 9.50167 31.6938 9.455L31.3138 9.665C31.3205 9.24167 31.2305 8.92833 31.0438 8.725C30.8605 8.51833 30.5438 8.415 30.0938 8.415C29.8105 8.415 29.5505 8.48167 29.3138 8.615C29.0772 8.745 28.9122 8.96167 28.8188 9.265L27.8438 8.965C27.9772 8.50167 28.2305 8.13333 28.6038 7.86C28.9805 7.58667 29.4805 7.45 30.1038 7.45C30.5872 7.45 31.0072 7.53333 31.3638 7.7C31.7238 7.86333 31.9872 8.12333 32.1538 8.48C32.2405 8.65667 32.2938 8.84333 32.3138 9.04C32.3338 9.23667 32.3438 9.44833 32.3438 9.675V13H31.4188V11.765L31.5988 11.925C31.3755 12.3383 31.0905 12.6467 30.7438 12.85C30.4005 13.05 29.9772 13.15 29.4738 13.15ZM29.6588 12.295C29.9555 12.295 30.2105 12.2433 30.4238 12.14C30.6372 12.0333 30.8088 11.8983 30.9388 11.735C31.0688 11.5717 31.1538 11.4017 31.1938 11.225C31.2505 11.065 31.2822 10.885 31.2888 10.685C31.2988 10.485 31.3038 10.325 31.3038 10.205L31.6438 10.33C31.3138 10.38 31.0138 10.425 30.7438 10.465C30.4738 10.505 30.2288 10.545 30.0088 10.585C29.7922 10.6217 29.5988 10.6667 29.4288 10.72C29.2855 10.77 29.1572 10.83 29.0438 10.9C28.9338 10.97 28.8455 11.055 28.7788 11.155C28.7155 11.255 28.6838 11.3767 28.6838 11.52C28.6838 11.66 28.7188 11.79 28.7888 11.91C28.8588 12.0267 28.9655 12.12 29.1088 12.19C29.2522 12.26 29.4355 12.295 29.6588 12.295ZM36.1272 13.15C35.6105 13.15 35.1772 13.025 34.8272 12.775C34.4772 12.5217 34.2122 12.18 34.0322 11.75C33.8522 11.32 33.7622 10.835 33.7622 10.295C33.7622 9.755 33.8505 9.27 34.0272 8.84C34.2072 8.41 34.4705 8.07167 34.8172 7.825C35.1672 7.575 35.5972 7.45 36.1072 7.45C36.6139 7.45 37.0505 7.575 37.4172 7.825C37.7872 8.07167 38.0722 8.41 38.2722 8.84C38.4722 9.26667 38.5722 9.75167 38.5722 10.295C38.5722 10.835 38.4722 11.3217 38.2722 11.755C38.0755 12.185 37.7939 12.525 37.4272 12.775C37.0639 13.025 36.6305 13.15 36.1272 13.15ZM33.5872 15.4V7.6H34.5172V11.485H34.6372V15.4H33.5872ZM35.9822 12.205C36.3155 12.205 36.5905 12.12 36.8072 11.95C37.0272 11.78 37.1905 11.5517 37.2972 11.265C37.4072 10.975 37.4622 10.6517 37.4622 10.295C37.4622 9.94167 37.4072 9.62167 37.2972 9.335C37.1905 9.04833 37.0255 8.82 36.8022 8.65C36.5789 8.48 36.2939 8.395 35.9472 8.395C35.6205 8.395 35.3505 8.475 35.1372 8.635C34.9272 8.795 34.7705 9.01833 34.6672 9.305C34.5672 9.59167 34.5172 9.92167 34.5172 10.295C34.5172 10.6683 34.5672 10.9983 34.6672 11.285C34.7672 11.5717 34.9255 11.7967 35.1422 11.96C35.3589 12.1233 35.6389 12.205 35.9822 12.205ZM41.0212 13V8.54H39.1762V7.6H43.9112V8.54H42.0662V13H41.0212ZM47.0579 13.15C46.5179 13.15 46.0496 13.0283 45.6529 12.785C45.2562 12.5417 44.9496 12.2067 44.7329 11.78C44.5196 11.35 44.4129 10.855 44.4129 10.295C44.4129 9.73167 44.5229 9.23667 44.7429 8.81C44.9629 8.38 45.2712 8.04667 45.6679 7.81C46.0646 7.57 46.5279 7.45 47.0579 7.45C47.5979 7.45 48.0662 7.57167 48.4629 7.815C48.8596 8.05833 49.1662 8.39333 49.3829 8.82C49.5996 9.24667 49.7079 9.73833 49.7079 10.295C49.7079 10.8583 49.5979 11.355 49.3779 11.785C49.1612 12.2117 48.8546 12.5467 48.4579 12.79C48.0612 13.03 47.5946 13.15 47.0579 13.15ZM47.0579 12.165C47.5746 12.165 47.9596 11.9917 48.2129 11.645C48.4696 11.295 48.5979 10.845 48.5979 10.295C48.5979 9.73167 48.4679 9.28167 48.2079 8.945C47.9512 8.605 47.5679 8.435 47.0579 8.435C46.7079 8.435 46.4196 8.515 46.1929 8.675C45.9662 8.83167 45.7979 9.05 45.6879 9.33C45.5779 9.60667 45.5229 9.92833 45.5229 10.295C45.5229 10.8617 45.6529 11.315 45.9129 11.655C46.1729 11.995 46.5546 12.165 47.0579 12.165ZM53.1666 6.98C52.9033 6.98 52.6616 6.915 52.4416 6.785C52.225 6.655 52.0516 6.48167 51.9216 6.265C51.7916 6.04833 51.7266 5.80667 51.7266 5.54H52.5566C52.5566 5.70667 52.6166 5.85 52.7366 5.97C52.8566 6.09 53 6.15 53.1666 6.15C53.3366 6.15 53.48 6.09 53.5966 5.97C53.7166 5.85 53.7766 5.70667 53.7766 5.54H54.6066C54.6066 5.80667 54.5416 6.04833 54.4116 6.265C54.2816 6.48167 54.1066 6.655 53.8866 6.785C53.67 6.915 53.43 6.98 53.1666 6.98ZM55.3066 7.6V13H54.3016V9.245L51.6016 13H50.7516V7.6H51.7566V11.28L54.4616 7.6H55.3066Z" fill="white"></path><g clip-path="url(#clip0_275_2)"><path d="M84.2863 3.57448C83.4401 3.38012 82.561 3.38012 81.7148 3.57448" stroke="white" stroke-width="0.75" stroke-linecap="round" stroke-linejoin="round"></path><path opacity="0.5" d="M80.0769 4.26025C79.7092 4.48841 79.3672 4.75567 79.0569 5.0574C78.7552 5.36766 78.4879 5.70964 78.2598 6.0774" stroke="white" stroke-width="0.75" stroke-linecap="round" stroke-linejoin="round"></path><path d="M77.5745 7.71436C77.3801 8.56048 77.3801 9.43966 77.5745 10.2858" stroke="white" stroke-width="0.75" stroke-linecap="round" stroke-linejoin="round"></path><path opacity="0.5" d="M78.2598 11.9229C78.4879 12.2907 78.7552 12.6326 79.0569 12.9429C79.3672 13.2446 79.7092 13.5118 80.0769 13.74" stroke="white" stroke-width="0.75" stroke-linecap="round" stroke-linejoin="round"></path><path d="M81.7148 14.4258C82.561 14.6201 83.4401 14.6201 84.2863 14.4258" stroke="white" stroke-width="0.75" stroke-linecap="round" stroke-linejoin="round"></path><path opacity="0.5" d="M85.9229 13.74C86.2907 13.5118 86.6327 13.2446 86.9429 12.9429C87.2446 12.6326 87.5119 12.2907 87.74 11.9229" stroke="white" stroke-width="0.75" stroke-linecap="round" stroke-linejoin="round"></path><path d="M88.4258 10.2858C88.6201 9.43966 88.6201 8.56048 88.4258 7.71436" stroke="white" stroke-width="0.75" stroke-linecap="round" stroke-linejoin="round"></path><path opacity="0.5" d="M87.74 6.0774C87.5119 5.70964 87.2446 5.36766 86.9429 5.0574C86.6327 4.75567 86.2907 4.48841 85.9229 4.26025" stroke="white" stroke-width="0.75" stroke-linecap="round" stroke-linejoin="round"></path></g><path d="M12.5 4.25H1.5C0.947715 4.25 0.5 4.69772 0.5 5.25V12.75C0.5 13.3023 0.947715 13.75 1.5 13.75H12.5C13.0523 13.75 13.5 13.3023 13.5 12.75V5.25C13.5 4.69772 13.0523 4.25 12.5 4.25Z" stroke="white" stroke-width="0.75" stroke-linecap="round" stroke-linejoin="round"></path><path d="M0.5 7.75H13.5" stroke="white" stroke-width="0.75" stroke-linecap="round" stroke-linejoin="round"></path><path d="M9.5 11.25H11" stroke="white" stroke-width="0.75" stroke-linecap="round" stroke-linejoin="round"></path><path d="M95.7 13V5.8H98.61C98.68 5.8 98.7667 5.80333 98.87 5.81C98.9733 5.81333 99.0717 5.82333 99.165 5.84C99.565 5.90333 99.8983 6.04 100.165 6.25C100.435 6.46 100.637 6.725 100.77 7.045C100.903 7.365 100.97 7.71833 100.97 8.105C100.97 8.495 100.903 8.85 100.77 9.17C100.637 9.49 100.435 9.755 100.165 9.965C99.8983 10.175 99.565 10.3117 99.165 10.375C99.0717 10.3883 98.9717 10.3983 98.865 10.405C98.7617 10.4117 98.6767 10.415 98.61 10.415H96.745V13H95.7ZM96.745 9.425H98.57C98.6367 9.425 98.71 9.42167 98.79 9.415C98.8733 9.40833 98.9517 9.39667 99.025 9.38C99.2383 9.33 99.41 9.23833 99.54 9.105C99.67 8.96833 99.7633 8.81167 99.82 8.635C99.8767 8.45833 99.905 8.28167 99.905 8.105C99.905 7.92833 99.8767 7.75333 99.82 7.58C99.7633 7.40333 99.67 7.24833 99.54 7.115C99.41 6.97833 99.2383 6.885 99.025 6.835C98.9517 6.815 98.8733 6.80167 98.79 6.795C98.71 6.78833 98.6367 6.785 98.57 6.785H96.745V9.425ZM103.445 13.15C103.045 13.15 102.71 13.0767 102.44 12.93C102.17 12.78 101.965 12.5833 101.825 12.34C101.688 12.0933 101.62 11.8233 101.62 11.53C101.62 11.2567 101.668 11.0167 101.765 10.81C101.861 10.6033 102.005 10.4283 102.195 10.285C102.385 10.1383 102.618 10.02 102.895 9.93C103.135 9.86 103.406 9.79833 103.71 9.745C104.013 9.69167 104.331 9.64167 104.665 9.595C105.001 9.54833 105.335 9.50167 105.665 9.455L105.285 9.665C105.291 9.24167 105.201 8.92833 105.015 8.725C104.831 8.51833 104.515 8.415 104.065 8.415C103.781 8.415 103.521 8.48167 103.285 8.615C103.048 8.745 102.883 8.96167 102.79 9.265L101.815 8.965C101.948 8.50167 102.201 8.13333 102.575 7.86C102.951 7.58667 103.451 7.45 104.075 7.45C104.558 7.45 104.978 7.53333 105.335 7.7C105.695 7.86333 105.958 8.12333 106.125 8.48C106.211 8.65667 106.265 8.84333 106.285 9.04C106.305 9.23667 106.315 9.44833 106.315 9.675V13H105.39V11.765L105.57 11.925C105.346 12.3383 105.061 12.6467 104.715 12.85C104.371 13.05 103.948 13.15 103.445 13.15ZM103.63 12.295C103.926 12.295 104.181 12.2433 104.395 12.14C104.608 12.0333 104.78 11.8983 104.91 11.735C105.04 11.5717 105.125 11.4017 105.165 11.225C105.221 11.065 105.253 10.885 105.26 10.685C105.27 10.485 105.275 10.325 105.275 10.205L105.615 10.33C105.285 10.38 104.985 10.425 104.715 10.465C104.445 10.505 104.2 10.545 103.98 10.585C103.763 10.6217 103.57 10.6667 103.4 10.72C103.256 10.77 103.128 10.83 103.015 10.9C102.905 10.97 102.816 11.055 102.75 11.155C102.686 11.255 102.655 11.3767 102.655 11.52C102.655 11.66 102.69 11.79 102.76 11.91C102.83 12.0267 102.936 12.12 103.08 12.19C103.223 12.26 103.406 12.295 103.63 12.295ZM109.873 13.15C109.32 13.15 108.85 13.0267 108.463 12.78C108.076 12.5333 107.78 12.195 107.573 11.765C107.37 11.335 107.266 10.8467 107.263 10.3C107.266 9.74333 107.373 9.25167 107.583 8.825C107.793 8.395 108.093 8.05833 108.483 7.815C108.873 7.57167 109.341 7.45 109.888 7.45C110.478 7.45 110.981 7.59667 111.398 7.89C111.818 8.18333 112.095 8.585 112.228 9.095L111.188 9.395C111.085 9.09167 110.915 8.85667 110.678 8.69C110.445 8.52 110.176 8.435 109.873 8.435C109.53 8.435 109.248 8.51667 109.028 8.68C108.808 8.84 108.645 9.06 108.538 9.34C108.431 9.62 108.376 9.94 108.373 10.3C108.376 10.8567 108.503 11.3067 108.753 11.65C109.006 11.9933 109.38 12.165 109.873 12.165C110.21 12.165 110.481 12.0883 110.688 11.935C110.898 11.7783 111.058 11.555 111.168 11.265L112.228 11.515C112.051 12.0417 111.76 12.4467 111.353 12.73C110.946 13.01 110.453 13.15 109.873 13.15ZM115.36 13.15C114.807 13.15 114.337 13.0267 113.95 12.78C113.563 12.5333 113.267 12.195 113.06 11.765C112.857 11.335 112.753 10.8467 112.75 10.3C112.753 9.74333 112.86 9.25167 113.07 8.825C113.28 8.395 113.58 8.05833 113.97 7.815C114.36 7.57167 114.828 7.45 115.375 7.45C115.965 7.45 116.468 7.59667 116.885 7.89C117.305 8.18333 117.582 8.585 117.715 9.095L116.675 9.395C116.572 9.09167 116.402 8.85667 116.165 8.69C115.932 8.52 115.663 8.435 115.36 8.435C115.017 8.435 114.735 8.51667 114.515 8.68C114.295 8.84 114.132 9.06 114.025 9.34C113.918 9.62 113.863 9.94 113.86 10.3C113.863 10.8567 113.99 11.3067 114.24 11.65C114.493 11.9933 114.867 12.165 115.36 12.165C115.697 12.165 115.968 12.0883 116.175 11.935C116.385 11.7783 116.545 11.555 116.655 11.265L117.715 11.515C117.538 12.0417 117.247 12.4467 116.84 12.73C116.433 13.01 115.94 13.15 115.36 13.15ZM121.219 13.15C120.702 13.15 120.269 13.025 119.919 12.775C119.569 12.5217 119.304 12.18 119.124 11.75C118.944 11.32 118.854 10.835 118.854 10.295C118.854 9.755 118.942 9.27 119.119 8.84C119.299 8.41 119.562 8.07167 119.909 7.825C120.259 7.575 120.689 7.45 121.199 7.45C121.705 7.45 122.142 7.575 122.509 7.825C122.879 8.07167 123.164 8.41 123.364 8.84C123.564 9.26667 123.664 9.75167 123.664 10.295C123.664 10.835 123.564 11.3217 123.364 11.755C123.167 12.185 122.885 12.525 122.519 12.775C122.155 13.025 121.722 13.15 121.219 13.15ZM118.679 15.4V7.6H119.609V11.485H119.729V15.4H118.679ZM121.074 12.205C121.407 12.205 121.682 12.12 121.899 11.95C122.119 11.78 122.282 11.5517 122.389 11.265C122.499 10.975 122.554 10.6517 122.554 10.295C122.554 9.94167 122.499 9.62167 122.389 9.335C122.282 9.04833 122.117 8.82 121.894 8.65C121.67 8.48 121.385 8.395 121.039 8.395C120.712 8.395 120.442 8.475 120.229 8.635C120.019 8.795 119.862 9.01833 119.759 9.305C119.659 9.59167 119.609 9.92167 119.609 10.295C119.609 10.6683 119.659 10.9983 119.759 11.285C119.859 11.5717 120.017 11.7967 120.234 11.96C120.45 12.1233 120.73 12.205 121.074 12.205ZM127.063 13.15C126.523 13.15 126.054 13.0283 125.658 12.785C125.261 12.5417 124.954 12.2067 124.738 11.78C124.524 11.35 124.418 10.855 124.418 10.295C124.418 9.73167 124.528 9.23667 124.748 8.81C124.968 8.38 125.276 8.04667 125.673 7.81C126.069 7.57 126.533 7.45 127.063 7.45C127.603 7.45 128.071 7.57167 128.468 7.815C128.864 8.05833 129.171 8.39333 129.388 8.82C129.604 9.24667 129.713 9.73833 129.713 10.295C129.713 10.8583 129.603 11.355 129.383 11.785C129.166 12.2117 128.859 12.5467 128.463 12.79C128.066 13.03 127.599 13.15 127.063 13.15ZM127.063 12.165C127.579 12.165 127.964 11.9917 128.218 11.645C128.474 11.295 128.603 10.845 128.603 10.295C128.603 9.73167 128.473 9.28167 128.213 8.945C127.956 8.605 127.573 8.435 127.063 8.435C126.713 8.435 126.424 8.515 126.198 8.675C125.971 8.83167 125.803 9.05 125.693 9.33C125.583 9.60667 125.528 9.92833 125.528 10.295C125.528 10.8617 125.658 11.315 125.918 11.655C126.178 11.995 126.559 12.165 127.063 12.165ZM133.956 13V11.12C133.773 11.2133 133.558 11.29 133.311 11.35C133.065 11.4067 132.805 11.435 132.531 11.435C131.978 11.435 131.533 11.3117 131.196 11.065C130.863 10.815 130.646 10.455 130.546 9.985C130.52 9.845 130.5 9.70167 130.486 9.555C130.473 9.405 130.465 9.26833 130.461 9.145C130.461 9.02167 130.461 8.93 130.461 8.87V7.6H131.521V8.87C131.521 8.95667 131.525 9.07167 131.531 9.215C131.538 9.355 131.556 9.49167 131.586 9.625C131.65 9.925 131.776 10.1483 131.966 10.295C132.156 10.4383 132.425 10.51 132.771 10.51C133.021 10.51 133.246 10.4783 133.446 10.415C133.65 10.3483 133.82 10.2633 133.956 10.16V7.6H135.011V13H133.956ZM136.361 13L136.366 7.6H137.426V10.2L139.546 7.6H140.876L138.636 10.3L141.106 13H139.686L137.426 10.4V13H136.361ZM143.085 13.15C142.685 13.15 142.35 13.0767 142.08 12.93C141.81 12.78 141.605 12.5833 141.465 12.34C141.328 12.0933 141.26 11.8233 141.26 11.53C141.26 11.2567 141.308 11.0167 141.405 10.81C141.501 10.6033 141.645 10.4283 141.835 10.285C142.025 10.1383 142.258 10.02 142.535 9.93C142.775 9.86 143.046 9.79833 143.35 9.745C143.653 9.69167 143.971 9.64167 144.305 9.595C144.641 9.54833 144.975 9.50167 145.305 9.455L144.925 9.665C144.931 9.24167 144.841 8.92833 144.655 8.725C144.471 8.51833 144.155 8.415 143.705 8.415C143.421 8.415 143.161 8.48167 142.925 8.615C142.688 8.745 142.523 8.96167 142.43 9.265L141.455 8.965C141.588 8.50167 141.841 8.13333 142.215 7.86C142.591 7.58667 143.091 7.45 143.715 7.45C144.198 7.45 144.618 7.53333 144.975 7.7C145.335 7.86333 145.598 8.12333 145.765 8.48C145.851 8.65667 145.905 8.84333 145.925 9.04C145.945 9.23667 145.955 9.44833 145.955 9.675V13H145.03V11.765L145.21 11.925C144.986 12.3383 144.701 12.6467 144.355 12.85C144.011 13.05 143.588 13.15 143.085 13.15ZM143.27 12.295C143.566 12.295 143.821 12.2433 144.035 12.14C144.248 12.0333 144.42 11.8983 144.55 11.735C144.68 11.5717 144.765 11.4017 144.805 11.225C144.861 11.065 144.893 10.885 144.9 10.685C144.91 10.485 144.915 10.325 144.915 10.205L145.255 10.33C144.925 10.38 144.625 10.425 144.355 10.465C144.085 10.505 143.84 10.545 143.62 10.585C143.403 10.6217 143.21 10.6667 143.04 10.72C142.896 10.77 142.768 10.83 142.655 10.9C142.545 10.97 142.456 11.055 142.39 11.155C142.326 11.255 142.295 11.3767 142.295 11.52C142.295 11.66 142.33 11.79 142.4 11.91C142.47 12.0267 142.576 12.12 142.72 12.19C142.863 12.26 143.046 12.295 143.27 12.295Z" fill="white"></path><path d="M189.495 13V6.785H187.1V5.8H192.935V6.785H190.54V13H189.495ZM193.585 9.815V8.975H196.585V9.815H193.585ZM197.834 13V5.8H202.529V6.785H198.879V8.52H200.744C200.811 8.52 200.896 8.52333 200.999 8.53C201.106 8.53333 201.206 8.54167 201.299 8.555C201.689 8.60167 202.018 8.72833 202.284 8.935C202.554 9.14167 202.758 9.40333 202.894 9.72C203.034 10.0367 203.104 10.3833 203.104 10.76C203.104 11.1367 203.036 11.4833 202.899 11.8C202.763 12.1167 202.559 12.3783 202.289 12.585C202.023 12.7917 201.693 12.9183 201.299 12.965C201.206 12.9783 201.108 12.9883 201.004 12.995C200.901 12.9983 200.814 13 200.744 13H197.834ZM198.879 12.015H200.704C200.771 12.015 200.844 12.0117 200.924 12.005C201.008 11.9983 201.086 11.9883 201.159 11.975C201.483 11.9083 201.709 11.755 201.839 11.515C201.973 11.275 202.039 11.0233 202.039 10.76C202.039 10.4933 201.973 10.2417 201.839 10.005C201.709 9.765 201.483 9.61167 201.159 9.545C201.086 9.52833 201.008 9.51833 200.924 9.515C200.844 9.50833 200.771 9.505 200.704 9.505H198.879V12.015ZM205.579 13.15C205.179 13.15 204.844 13.0767 204.574 12.93C204.304 12.78 204.099 12.5833 203.959 12.34C203.822 12.0933 203.754 11.8233 203.754 11.53C203.754 11.2567 203.802 11.0167 203.899 10.81C203.996 10.6033 204.139 10.4283 204.329 10.285C204.519 10.1383 204.752 10.02 205.029 9.93C205.269 9.86 205.541 9.79833 205.844 9.745C206.147 9.69167 206.466 9.64167 206.799 9.595C207.136 9.54833 207.469 9.50167 207.799 9.455L207.419 9.665C207.426 9.24167 207.336 8.92833 207.149 8.725C206.966 8.51833 206.649 8.415 206.199 8.415C205.916 8.415 205.656 8.48167 205.419 8.615C205.182 8.745 205.017 8.96167 204.924 9.265L203.949 8.965C204.082 8.50167 204.336 8.13333 204.709 7.86C205.086 7.58667 205.586 7.45 206.209 7.45C206.692 7.45 207.112 7.53333 207.469 7.7C207.829 7.86333 208.092 8.12333 208.259 8.48C208.346 8.65667 208.399 8.84333 208.419 9.04C208.439 9.23667 208.449 9.44833 208.449 9.675V13H207.524V11.765L207.704 11.925C207.481 12.3383 207.196 12.6467 206.849 12.85C206.506 13.05 206.082 13.15 205.579 13.15ZM205.764 12.295C206.061 12.295 206.316 12.2433 206.529 12.14C206.742 12.0333 206.914 11.8983 207.044 11.735C207.174 11.5717 207.259 11.4017 207.299 11.225C207.356 11.065 207.387 10.885 207.394 10.685C207.404 10.485 207.409 10.325 207.409 10.205L207.749 10.33C207.419 10.38 207.119 10.425 206.849 10.465C206.579 10.505 206.334 10.545 206.114 10.585C205.897 10.6217 205.704 10.6667 205.534 10.72C205.391 10.77 205.262 10.83 205.149 10.9C205.039 10.97 204.951 11.055 204.884 11.155C204.821 11.255 204.789 11.3767 204.789 11.52C204.789 11.66 204.824 11.79 204.894 11.91C204.964 12.0267 205.071 12.12 205.214 12.19C205.357 12.26 205.541 12.295 205.764 12.295ZM209.692 13V7.6H210.737V9.805H213.372V7.6H214.417V13H213.372V10.79H210.737V13H209.692ZM215.765 13L215.77 7.6H216.83V10.2L218.95 7.6H220.28L218.04 10.3L220.51 13H219.09L216.83 10.4V13H215.765Z" fill="white"></path><path d="M167 3H181V10.041C181 11.846 180.037 13.5139 178.474 14.4165L174 17L169.526 14.4165C167.963 13.5139 167 11.846 167 10.041V3Z" fill="#FFDD2D"></path><path fill-rule="evenodd" clip-rule="evenodd" d="M170.842 6.70605V8.89595C171.141 8.55779 171.686 8.32892 172.308 8.32892H172.985V10.8747C172.985 11.5519 172.801 12.1448 172.528 12.4708H175.47C175.198 12.1444 175.014 11.5524 175.014 10.8759V8.32892H175.691C176.313 8.32892 176.858 8.55779 177.157 8.89595V6.70605H170.842Z" fill="#333333"></path><path d="M264.705 13.15C263.985 13.15 263.372 12.9933 262.865 12.68C262.358 12.3633 261.97 11.9233 261.7 11.36C261.433 10.7967 261.3 10.1433 261.3 9.4C261.3 8.65667 261.433 8.00333 261.7 7.44C261.97 6.87667 262.358 6.43833 262.865 6.125C263.372 5.80833 263.985 5.65 264.705 5.65C265.535 5.65 266.222 5.86 266.765 6.28C267.312 6.7 267.692 7.265 267.905 7.975L266.845 8.26C266.705 7.75667 266.455 7.36167 266.095 7.075C265.738 6.78833 265.275 6.645 264.705 6.645C264.195 6.645 263.77 6.76 263.43 6.99C263.09 7.22 262.833 7.54167 262.66 7.955C262.49 8.36833 262.405 8.85 262.405 9.4C262.402 9.95 262.485 10.4317 262.655 10.845C262.828 11.2583 263.085 11.58 263.425 11.81C263.768 12.04 264.195 12.155 264.705 12.155C265.275 12.155 265.738 12.0117 266.095 11.725C266.455 11.435 266.705 11.04 266.845 10.54L267.905 10.825C267.692 11.535 267.312 12.1 266.765 12.52C266.222 12.94 265.535 13.15 264.705 13.15ZM271.175 13.155C270.661 13.1517 270.225 13.04 269.865 12.82C269.505 12.6 269.223 12.2833 269.02 11.87C268.82 11.4533 268.703 10.9517 268.67 10.365C268.653 10.0817 268.655 9.76833 268.675 9.425C268.695 9.07833 268.731 8.74333 268.785 8.42C268.841 8.09667 268.913 7.82667 269 7.61C269.096 7.37 269.228 7.15 269.395 6.95C269.561 6.74667 269.745 6.57667 269.945 6.44C270.158 6.29333 270.395 6.18 270.655 6.1C270.915 6.01667 271.186 5.95167 271.47 5.905C271.756 5.85833 272.045 5.81833 272.335 5.785C272.628 5.74833 272.913 5.70333 273.19 5.65L273.29 6.585C273.106 6.62833 272.89 6.66333 272.64 6.69C272.393 6.71667 272.136 6.74667 271.87 6.78C271.606 6.81333 271.355 6.86 271.115 6.92C270.875 6.98 270.666 7.065 270.49 7.175C270.24 7.32833 270.048 7.55167 269.915 7.845C269.785 8.13833 269.706 8.45667 269.68 8.8C269.886 8.48667 270.15 8.26167 270.47 8.125C270.79 7.985 271.121 7.915 271.465 7.915C271.945 7.915 272.358 8.02833 272.705 8.255C273.055 8.48167 273.323 8.79 273.51 9.18C273.696 9.57 273.79 10.0117 273.79 10.505C273.79 11.0383 273.68 11.505 273.46 11.905C273.243 12.3017 272.938 12.6117 272.545 12.835C272.151 13.055 271.695 13.1617 271.175 13.155ZM271.23 12.17C271.71 12.17 272.071 12.0217 272.315 11.725C272.561 11.4283 272.685 11.0333 272.685 10.54C272.685 10.0333 272.558 9.635 272.305 9.345C272.051 9.055 271.693 8.91 271.23 8.91C270.76 8.91 270.4 9.055 270.15 9.345C269.903 9.635 269.78 10.0333 269.78 10.54C269.78 11.0533 269.905 11.4533 270.155 11.74C270.405 12.0267 270.763 12.17 271.23 12.17ZM277.237 13.15C276.701 13.15 276.229 13.0333 275.822 12.8C275.419 12.5633 275.104 12.235 274.877 11.815C274.654 11.3917 274.542 10.9017 274.542 10.345C274.542 9.755 274.652 9.24333 274.872 8.81C275.096 8.37667 275.406 8.04167 275.802 7.805C276.199 7.56833 276.661 7.45 277.187 7.45C277.737 7.45 278.206 7.57833 278.592 7.835C278.979 8.08833 279.267 8.45 279.457 8.92C279.651 9.39 279.727 9.94833 279.687 10.595H278.642V10.215C278.636 9.58833 278.516 9.125 278.282 8.825C278.052 8.525 277.701 8.375 277.227 8.375C276.704 8.375 276.311 8.54 276.047 8.87C275.784 9.2 275.652 9.67667 275.652 10.3C275.652 10.8933 275.784 11.3533 276.047 11.68C276.311 12.0033 276.691 12.165 277.187 12.165C277.514 12.165 277.796 12.0917 278.032 11.945C278.272 11.795 278.459 11.5817 278.592 11.305L279.617 11.63C279.407 12.1133 279.089 12.4883 278.662 12.755C278.236 13.0183 277.761 13.15 277.237 13.15ZM275.312 10.595V9.78H279.167V10.595H275.312ZM283.294 13.15C282.777 13.15 282.344 13.025 281.994 12.775C281.644 12.5217 281.379 12.18 281.199 11.75C281.019 11.32 280.929 10.835 280.929 10.295C280.929 9.755 281.017 9.27 281.194 8.84C281.374 8.41 281.637 8.07167 281.984 7.825C282.334 7.575 282.764 7.45 283.274 7.45C283.781 7.45 284.217 7.575 284.584 7.825C284.954 8.07167 285.239 8.41 285.439 8.84C285.639 9.26667 285.739 9.75167 285.739 10.295C285.739 10.835 285.639 11.3217 285.439 11.755C285.242 12.185 284.961 12.525 284.594 12.775C284.231 13.025 283.797 13.15 283.294 13.15ZM280.754 15.4V7.6H281.684V11.485H281.804V15.4H280.754ZM283.149 12.205C283.482 12.205 283.757 12.12 283.974 11.95C284.194 11.78 284.357 11.5517 284.464 11.265C284.574 10.975 284.629 10.6517 284.629 10.295C284.629 9.94167 284.574 9.62167 284.464 9.335C284.357 9.04833 284.192 8.82 283.969 8.65C283.746 8.48 283.461 8.395 283.114 8.395C282.787 8.395 282.517 8.475 282.304 8.635C282.094 8.795 281.937 9.01833 281.834 9.305C281.734 9.59167 281.684 9.92167 281.684 10.295C281.684 10.6683 281.734 10.9983 281.834 11.285C281.934 11.5717 282.092 11.7967 282.309 11.96C282.526 12.1233 282.806 12.205 283.149 12.205Z" fill="white"></path><path d="M253.538 4.73047C253.869 5.15805 254.145 5.62704 254.379 6.12359L248.007 10.8271L245.331 9.14429V7.13048L247.993 8.79947L253.538 4.73047Z" fill="#21A038"></path><path d="M242.614 9.00509C242.614 8.90853 242.614 8.82577 242.628 8.72921L241.014 8.64648C241.014 8.75683 241 8.88097 241 8.9913C241 10.9224 241.786 12.674 243.055 13.9432L244.2 12.7983C243.221 11.8328 242.614 10.4948 242.614 9.00509Z" fill="url(#paint0_linear_275_2)"></path><path d="M247.993 3.62602C248.089 3.62602 248.172 3.62602 248.269 3.63982L248.351 2.026C248.241 2.026 248.117 2.01221 248.007 2.01221C246.076 2.01221 244.324 2.79842 243.055 4.0674L244.2 5.21223C245.165 4.2329 246.517 3.62602 247.993 3.62602Z" fill="url(#paint1_linear_275_2)"></path><path d="M247.993 14.386C247.897 14.386 247.814 14.386 247.718 14.3722L247.635 15.9861C247.745 15.9861 247.869 15.9998 247.98 15.9998C249.911 15.9998 251.662 15.2136 252.931 13.9447L251.787 12.7998C250.821 13.7929 249.483 14.386 247.993 14.386Z" fill="url(#paint2_linear_275_2)"></path><path d="M251.028 4.56556L252.393 3.55864C251.193 2.59313 249.662 2 247.993 2V3.61382C249.124 3.62761 250.172 3.97245 251.028 4.56556Z" fill="url(#paint3_linear_275_2)"></path><path d="M255 9.00469C255 8.57711 254.958 8.1633 254.889 7.74951L253.386 8.86678V9.00471C253.386 10.5909 252.696 12.0116 251.606 12.991L252.696 14.191C254.103 12.9221 255 11.0601 255 9.00469Z" fill="#21A038"></path><path d="M247.993 14.3863C246.407 14.3863 244.986 13.6966 244.007 12.6069L242.807 13.6966C244.089 15.1173 245.938 16.0001 247.993 16.0001L247.993 14.3863Z" fill="url(#paint4_linear_275_2)"></path><path d="M244.393 5.01985L243.303 3.81982C241.883 5.10259 241 6.95078 241 9.00597H242.614C242.614 7.43354 243.303 5.99928 244.393 5.01985Z" fill="url(#paint5_linear_275_2)"></path><g clip-path="url(#clip1_275_2)"><mask id="mask0_275_2" style="mask-type:luminance" maskUnits="userSpaceOnUse" x="307" y="4" width="62" height="10"><path d="M369 4.26367H307.426V13.7366H369V4.26367Z" fill="white"></path></mask><g mask="url(#mask0_275_2)"><path d="M318.237 4.26367H316.842V12.128H318.237V4.26367Z" fill="white"></path><path d="M308.821 5.87207H307.426V13.7364H308.821V5.87207Z" fill="white"></path><path d="M311.959 5.33594H310.564V13.2003H311.959V5.33594Z" fill="white"></path><path d="M315.098 4.7998H313.703V12.6642H315.098V4.7998Z" fill="white"></path><path d="M357.089 8.78541L354.719 6.12646H353.334V12.2828H354.78V8.35496L356.944 10.6821H357.211L359.337 8.35496V12.2828H360.784V6.12646H359.398L357.089 8.78541Z" fill="white"></path><path d="M367.675 6.12646L364.09 10.1279V6.12646H362.644V12.2828H363.969L367.554 8.28142V12.2828H369V6.12646H367.675Z" fill="white"></path><path d="M345.544 8.37917C345.544 9.35935 346.075 10.1315 346.89 10.4552L345.361 12.2828H347.132L348.522 10.6202H350.027V12.2828H351.473V6.12646H347.791C346.418 6.12646 345.544 7.07436 345.544 8.37917ZM350.028 7.48239V9.30285H348.059C347.403 9.30285 347.05 8.93338 347.05 8.39173C347.05 7.85007 347.415 7.4806 348.059 7.4806L350.028 7.48239Z" fill="white"></path><path d="M338.822 7.35774C338.733 9.47503 338.29 10.8417 337.424 10.8417H337.207V12.3196L337.438 12.3322C339.176 12.4299 340.136 10.891 340.294 7.52992H342.579V12.2828H344.023V6.12646H338.87L338.822 7.35774Z" fill="white"></path><path d="M333.376 6.04004C331.42 6.04004 330.013 7.40673 330.013 9.20386C330.013 11.0629 331.544 12.3812 333.376 12.3812C335.285 12.3812 336.767 10.9893 336.767 9.20386C336.767 7.41838 335.285 6.04004 333.376 6.04004ZM333.376 10.9033C332.271 10.9033 331.517 10.1769 331.517 9.20386C331.517 8.20665 332.272 7.49999 333.376 7.49999C334.481 7.49999 335.26 8.23893 335.26 9.20386C335.26 10.1688 334.47 10.9033 333.376 10.9033Z" fill="white"></path><path d="M328.478 6.13818H323.374L323.325 7.36945C323.252 9.14328 322.794 10.8301 321.927 10.8544L321.526 10.8669V13.7366H322.985V12.2838H328.053V13.7366H329.524V10.8544H328.478V6.13818ZM327.032 10.8544H323.946C324.468 10.0544 324.747 8.89667 324.796 7.54254H327.032V10.8544Z" fill="white"></path></g></g><defs><linearGradient id="paint0_linear_275_2" x1="242.883" y1="13.756" x2="241.235" y2="8.99431" gradientUnits="userSpaceOnUse"><stop offset="0.1444" stop-color="#F2E913"></stop><stop offset="0.3037" stop-color="#E7E518"></stop><stop offset="0.5823" stop-color="#CADB26"></stop><stop offset="0.891" stop-color="#A3CD39"></stop></linearGradient><linearGradient id="paint1_linear_275_2" x1="243.508" y1="3.87901" x2="247.693" y2="2.28431" gradientUnits="userSpaceOnUse"><stop offset="0.0592" stop-color="#0FA8E0"></stop><stop offset="0.5385" stop-color="#0099F9"></stop><stop offset="0.9234" stop-color="#0291EB"></stop></linearGradient><linearGradient id="paint2_linear_275_2" x1="247.541" y1="14.6295" x2="252.529" y2="13.5023" gradientUnits="userSpaceOnUse"><stop offset="0.1226" stop-color="#A3CD39"></stop><stop offset="0.2846" stop-color="#86C339"></stop><stop offset="0.8693" stop-color="#21A038"></stop></linearGradient><linearGradient id="paint3_linear_275_2" x1="247.659" y1="3.03217" x2="251.807" y2="4.31209" gradientUnits="userSpaceOnUse"><stop offset="0.0566" stop-color="#0291EB"></stop><stop offset="0.79" stop-color="#0C8ACB"></stop></linearGradient><linearGradient id="paint4_linear_275_2" x1="243.211" y1="13.9623" x2="247.665" y2="15.6272" gradientUnits="userSpaceOnUse"><stop offset="0.1324" stop-color="#F2E913"></stop><stop offset="0.2977" stop-color="#EBE716"></stop><stop offset="0.5306" stop-color="#D9E01F"></stop><stop offset="0.8023" stop-color="#BBD62D"></stop><stop offset="0.9829" stop-color="#A3CD39"></stop></linearGradient><linearGradient id="paint5_linear_275_2" x1="242.227" y1="9.20375" x2="244.008" y2="4.5704" gradientUnits="userSpaceOnUse"><stop offset="0.0698" stop-color="#A3CD39"></stop><stop offset="0.2599" stop-color="#81C55F"></stop><stop offset="0.9216" stop-color="#0FA8E0"></stop></linearGradient><clipPath id="clip0_275_2"><rect width="12" height="12" fill="white" transform="translate(77 3)"></rect></clipPath><clipPath id="clip1_275_2"><rect width="61.5742" height="9.47296" fill="white" transform="translate(307.426 4.26367)"></rect></clipPath></defs></svg> 