<?xml version="1.0" encoding="UTF-8"?> <svg xmlns="http://www.w3.org/2000/svg" width="195" height="23" viewBox="0 0 195 23" fill="none"><path d="M24.4002 6.15006V16.0977H22.6999V11.5977H18.2501V16.0977H16.5004V6.15006H18.2017V10.1004H22.6523V6.15006H24.4002ZM14.7498 16.0977H13.0504V6.15006H14.7498V16.0977ZM11.3501 16.0977H9.55006L5.10032 8.79978H5.05002V16.0977H3.40366V6.15006H5.20002L9.70006 13.4498H9.75037V6.15006H11.3967V16.0977H11.3501ZM30.4506 11.0983L24.4002 0H2.00059C1.73434 0.00213794 1.47115 0.056977 1.2262 0.161353C0.981244 0.26573 0.759386 0.417577 0.57342 0.608135C0.387454 0.798692 0.241062 1.02419 0.14269 1.27161C0.0443185 1.51904 -0.00408583 1.78349 0.000269893 2.04972V20.1999C-0.00408583 20.4661 0.0443185 20.7306 0.14269 20.978C0.241062 21.2254 0.387454 21.4509 0.57342 21.6415C0.759386 21.832 0.981244 21.9839 1.2262 22.0883C1.47115 22.1926 1.73434 22.2475 2.00059 22.2496H24.3499L30.4506 11.0983Z" fill="white"></path><path d="M25.9004 22.2002L32.0001 11.1001L25.9004 0H27.4004C28.2501 0 29.2507 0.600006 29.6504 1.35001L35.0002 11.1001L29.6504 20.8539C29.2507 21.6039 28.2501 22.2039 27.4004 22.2039L25.9004 22.2002Z" fill="white"></path><g opacity="0.5"><path d="M44.7803 1.13379H46.3184L50.1172 7.26315H50.1406V1.13379H51.5277V9.45387H49.9867L46.2019 3.3357H46.1646V9.45387H44.7803V1.13379Z" fill="white"></path><path d="M58.1123 8.1127C58.1034 8.23281 58.1256 8.35319 58.1766 8.46228C58.2054 8.50043 58.2437 8.53028 58.2878 8.54878C58.3318 8.56729 58.38 8.57379 58.4274 8.56762H58.5644C58.6272 8.56673 58.6898 8.55892 58.7509 8.54431V9.46442C58.7042 9.48027 58.6436 9.49798 58.57 9.51756C58.4964 9.53713 58.4199 9.55391 58.3425 9.56976C58.2652 9.58561 58.1869 9.59679 58.1095 9.60425C58.0439 9.61179 57.9779 9.61583 57.9119 9.61637C57.6759 9.62515 57.442 9.5687 57.236 9.45323C57.057 9.34385 56.9405 9.15337 56.8864 8.88178C56.6118 9.14386 56.2779 9.33575 55.9132 9.44111C55.5528 9.55398 55.1777 9.61303 54.8001 9.61637C54.536 9.61737 54.2732 9.58001 54.0198 9.50544C53.7823 9.43728 53.559 9.32674 53.3607 9.17916C53.1695 9.03395 53.0142 8.84672 52.9068 8.63194C52.7897 8.39049 52.7318 8.12461 52.738 7.85633C52.7243 7.54073 52.7944 7.22712 52.9412 6.94742C53.0702 6.72215 53.2547 6.53374 53.4773 6.4002C53.7082 6.26421 53.9603 6.1678 54.2231 6.11494C54.4984 6.0563 54.7766 6.0115 55.0565 5.9807C55.2839 5.93565 55.5135 5.90267 55.7444 5.88189C55.9413 5.86651 56.1363 5.83312 56.3271 5.78214C56.4755 5.74579 56.612 5.6716 56.7233 5.5668C56.7749 5.50706 56.8141 5.43763 56.8386 5.36256C56.8631 5.28749 56.8724 5.20828 56.8659 5.12958C56.8723 4.98001 56.829 4.83252 56.7429 4.71008C56.6636 4.60345 56.5596 4.51771 56.4399 4.46025C56.3133 4.39955 56.1775 4.36018 56.0381 4.34372C55.8991 4.32457 55.7589 4.3146 55.6186 4.31389C55.2958 4.30103 54.9762 4.38198 54.6985 4.54694C54.5779 4.62625 54.478 4.73316 54.407 4.8588C54.3359 4.98445 54.2959 5.12521 54.2902 5.26942H52.9618C52.971 4.92861 53.0673 4.59583 53.2414 4.3027C53.3992 4.05162 53.6126 3.84016 53.8651 3.68464C54.1288 3.52542 54.419 3.4149 54.7218 3.35836C55.0443 3.29607 55.3721 3.26486 55.7006 3.26514C55.9943 3.26532 56.2871 3.29656 56.5741 3.35836C56.8488 3.41514 57.112 3.51789 57.3525 3.66227C57.5769 3.79741 57.7666 3.98322 57.9063 4.20482C58.0522 4.44889 58.125 4.72975 58.116 5.01399L58.1123 8.1127ZM56.7839 6.4347C56.5586 6.57442 56.3026 6.65669 56.0381 6.67428C55.7426 6.70131 55.448 6.74233 55.1525 6.7964C55.0133 6.82079 54.8762 6.85569 54.7423 6.90081C54.617 6.93981 54.4989 6.99901 54.3927 7.07606C54.2909 7.1519 54.2096 7.25185 54.1559 7.36692C54.0947 7.50433 54.065 7.65374 54.0692 7.80413C54.0652 7.93981 54.1105 8.07234 54.197 8.17702C54.2818 8.27744 54.387 8.35877 54.5055 8.41567C54.6309 8.47562 54.7644 8.51677 54.9017 8.53779C55.0308 8.55995 55.1614 8.5718 55.2923 8.57321C55.4534 8.57156 55.6138 8.55186 55.7705 8.51448C55.9414 8.47605 56.1046 8.40925 56.2534 8.31685C56.4029 8.22567 56.532 8.10479 56.6328 7.96168C56.7373 7.80493 56.7901 7.61947 56.7839 7.43124V6.4347Z" fill="white"></path><path d="M58.9365 3.42925H59.9387V1.62354H61.2671V3.42925H62.4696V4.4202H61.2671V7.63637C61.2661 7.75684 61.2717 7.87728 61.2839 7.99714C61.2923 8.08753 61.3203 8.17501 61.3659 8.2535C61.4109 8.3257 61.4783 8.38107 61.5579 8.41105C61.6701 8.45043 61.7887 8.46814 61.9075 8.46325C62.0007 8.46325 62.094 8.46139 62.1872 8.45766C62.2816 8.4536 62.3753 8.43986 62.4668 8.41664V9.44209L62.0362 9.4887C61.8928 9.50456 61.7487 9.51234 61.6045 9.512C61.3197 9.52026 61.0352 9.48697 60.76 9.41319C60.5704 9.36131 60.3976 9.26109 60.2584 9.12233C60.1345 8.98628 60.0501 8.819 60.0142 8.63851C59.9684 8.41978 59.9431 8.19726 59.9387 7.97383V4.4202H58.9365V3.42925Z" fill="white"></path><path d="M63.46 1.13379H64.7884V2.39229H63.46V1.13379ZM63.46 3.42892H64.7884V9.45387H63.46V3.42892Z" fill="white"></path><path d="M68.995 9.61734C68.5542 9.6248 68.1164 9.54365 67.7076 9.37869C67.3457 9.22974 67.0199 9.00501 66.7521 8.71961C66.4858 8.43088 66.2832 8.08947 66.1573 7.71747C65.8851 6.88876 65.8851 5.99469 66.1573 5.16598C66.2832 4.79398 66.4858 4.45257 66.7521 4.16384C67.0197 3.87845 67.3455 3.65398 67.7076 3.50569C68.5361 3.18625 69.4538 3.18625 70.2824 3.50569C70.6456 3.65375 70.9728 3.87821 71.2416 4.16384C71.5075 4.45281 71.7101 4.79415 71.8364 5.16598C72.1076 5.99485 72.1076 6.8886 71.8364 7.71747C71.7101 8.0893 71.5075 8.43063 71.2416 8.71961C70.9736 9.00479 70.6479 9.22949 70.2861 9.37869C69.8761 9.54414 69.437 9.6253 68.995 9.61734ZM68.995 8.56859C69.2633 8.57515 69.5286 8.51084 69.7641 8.38215C69.9775 8.26172 70.1608 8.09437 70.3001 7.89273C70.4421 7.68541 70.5465 7.45475 70.6087 7.21127C70.7404 6.7048 70.7404 6.17305 70.6087 5.66658C70.5481 5.42256 70.4435 5.19163 70.3001 4.98513C70.159 4.78652 69.976 4.62135 69.7641 4.5013C69.5262 4.37867 69.2626 4.31468 68.995 4.31468C68.7274 4.31468 68.4637 4.37867 68.2259 4.5013C68.0139 4.62135 67.8309 4.78652 67.6899 4.98513C67.5461 5.19144 67.4415 5.42243 67.3813 5.66658C67.2483 6.17289 67.2483 6.70496 67.3813 7.21127C67.4431 7.45486 67.5476 7.68558 67.6899 7.89273C67.8292 8.09437 68.0124 8.26172 68.2259 8.38215C68.4614 8.51084 68.7267 8.57515 68.995 8.56859Z" fill="white"></path><path d="M73.1445 3.42933H74.403V4.31494L74.4263 4.33824C74.6193 4.01313 74.892 3.74264 75.2187 3.55238C75.5472 3.36046 75.9216 3.26123 76.302 3.26525C76.962 3.26525 77.4825 3.43616 77.8634 3.77798C78.2444 4.11979 78.4349 4.63251 78.4349 5.31614V9.45335H77.1065V5.66666C77.0909 5.19309 76.9899 4.84941 76.8035 4.63562C76.6171 4.42183 76.3256 4.31494 75.9291 4.31494C75.7206 4.31149 75.5138 4.35348 75.3231 4.43799C75.149 4.51594 74.994 4.63113 74.8691 4.77545C74.7412 4.92492 74.6423 5.0969 74.5774 5.28258C74.5069 5.48065 74.4716 5.6895 74.4729 5.89972V9.45428H73.1445V3.42933Z" fill="white"></path><path d="M84.8779 8.1127C84.8691 8.23281 84.8912 8.35319 84.9423 8.46228C84.971 8.50043 85.0094 8.53028 85.0534 8.54878C85.0975 8.56729 85.1456 8.57379 85.193 8.56762H85.3329C85.3957 8.56673 85.4582 8.55892 85.5193 8.54431V9.46442C85.4727 9.48027 85.4121 9.49798 85.3385 9.51756C85.2648 9.53713 85.1884 9.55391 85.111 9.56976C85.0336 9.58561 84.9553 9.59679 84.8779 9.60425C84.8123 9.61179 84.7463 9.61583 84.6803 9.61637C84.4443 9.62515 84.2104 9.5687 84.0044 9.45323C83.8255 9.34385 83.7089 9.15337 83.6549 8.88178C83.3802 9.14386 83.0463 9.33575 82.6816 9.44111C82.3212 9.55398 81.9462 9.61303 81.5685 9.61637C81.3047 9.61919 81.0419 9.58371 80.7883 9.51103C80.5508 9.44274 80.3275 9.33221 80.1292 9.18475C79.9379 9.03954 79.7826 8.85232 79.6752 8.63754C79.5581 8.39608 79.5003 8.1302 79.5065 7.86193C79.4932 7.54637 79.5633 7.23288 79.7097 6.95301C79.8386 6.72775 80.0232 6.53933 80.2457 6.4058C80.4767 6.26996 80.7288 6.17356 80.9915 6.12054C81.2669 6.0619 81.545 6.01709 81.8249 5.9863C82.0523 5.94124 82.282 5.90826 82.5129 5.88748C82.7077 5.86988 82.9005 5.83462 83.089 5.78214C83.2375 5.74603 83.3741 5.6718 83.4852 5.5668C83.5377 5.50747 83.5777 5.43819 83.6028 5.36308C83.628 5.28796 83.6377 5.20855 83.6316 5.12958C83.6379 4.98001 83.5947 4.83252 83.5085 4.71008C83.4295 4.60324 83.3255 4.51745 83.2055 4.46025C83.0783 4.39968 82.9419 4.36062 82.8019 4.34465C82.6628 4.3255 82.5227 4.31553 82.3824 4.31482C82.0596 4.30196 81.74 4.38291 81.4623 4.54788C81.3417 4.62718 81.2418 4.73409 81.1707 4.85974C81.0997 4.98538 81.0597 5.12614 81.054 5.27035H79.7255C79.7348 4.92954 79.8311 4.59676 80.0052 4.30363C80.163 4.05255 80.3764 3.84109 80.6289 3.68557C80.8931 3.52581 81.1839 3.41497 81.4874 3.35836C81.81 3.29607 82.1378 3.26486 82.4663 3.26514C82.7599 3.26532 83.0527 3.29656 83.3398 3.35836C83.6132 3.4151 83.8751 3.51752 84.1144 3.66133C84.3383 3.79698 84.5273 3.9831 84.6663 4.20482C84.8123 4.44889 84.8851 4.72975 84.8761 5.01399L84.8779 8.1127ZM83.5476 6.4347C83.3224 6.57442 83.0663 6.65669 82.8019 6.67428C82.5064 6.70131 82.2118 6.74233 81.9163 6.7964C81.7787 6.82102 81.6431 6.85592 81.5107 6.90081C81.3855 6.93981 81.2674 6.99901 81.1612 7.07606C81.0583 7.15156 80.976 7.25154 80.9216 7.36692C80.8603 7.50433 80.8307 7.65374 80.8349 7.80413C80.8308 7.93981 80.8762 8.07234 80.9626 8.17702C81.0475 8.27744 81.1526 8.35877 81.2712 8.41567C81.3966 8.47549 81.53 8.51663 81.6674 8.53779C81.7964 8.55991 81.927 8.57176 82.058 8.57321C82.2191 8.57156 82.3795 8.55186 82.5362 8.51448C82.7071 8.47605 82.8703 8.40925 83.0191 8.31685C83.1685 8.22567 83.2977 8.10479 83.3985 7.96168C83.5032 7.8034 83.5554 7.61618 83.5476 7.42658V6.4347Z" fill="white"></path><path d="M86.3438 1.13379H87.6722V9.45387H86.3438V1.13379Z" fill="white"></path><path d="M92.5449 1.13379H94.002V8.19537H98.2315V9.45387H92.5449V1.13379Z" fill="white"></path><path d="M99.083 1.13379H100.411V2.39229H99.083V1.13379ZM99.083 3.42892H100.411V9.45387H99.083V3.42892Z" fill="white"></path><path d="M101.891 1.13379H103.217V4.21012H103.24C103.334 4.06258 103.448 3.92916 103.579 3.81393C103.711 3.69691 103.858 3.597 104.015 3.51655C104.174 3.43523 104.343 3.37267 104.517 3.33011C104.686 3.28785 104.86 3.26625 105.035 3.26578C105.462 3.25627 105.886 3.34193 106.276 3.51655C106.618 3.67485 106.919 3.91033 107.156 4.20453C107.395 4.50662 107.574 4.85233 107.682 5.22252C107.801 5.62755 107.86 6.04778 107.857 6.46983C107.858 6.86731 107.805 7.26308 107.699 7.6463C107.603 8.00895 107.442 8.35087 107.222 8.65496C106.998 8.96347 106.702 9.21241 106.36 9.37997C106.018 9.54753 105.64 9.6286 105.259 9.61608C105.054 9.61576 104.849 9.60205 104.646 9.57506C104.443 9.54932 104.245 9.49632 104.056 9.41752C103.873 9.34219 103.702 9.24009 103.549 9.11455C103.389 8.98012 103.26 8.81328 103.17 8.62513H103.147V9.45294H101.889L101.891 1.13379ZM106.528 6.44746C106.529 6.17985 106.494 5.91335 106.424 5.65507C106.36 5.41115 106.253 5.18047 106.109 4.97361C105.972 4.7774 105.793 4.61406 105.585 4.49538C105.364 4.37226 105.115 4.30986 104.862 4.31453C104.303 4.31453 103.881 4.50875 103.597 4.89717C103.313 5.2856 103.172 5.80236 103.172 6.44746C103.17 6.73276 103.207 7.01699 103.283 7.29205C103.349 7.53519 103.461 7.763 103.615 7.96232C103.759 8.14553 103.94 8.2964 104.146 8.40512C104.367 8.51776 104.614 8.57381 104.862 8.56826C105.131 8.5765 105.397 8.51208 105.632 8.38182C105.838 8.26082 106.015 8.09558 106.15 7.89799C106.289 7.69328 106.388 7.46388 106.441 7.22213C106.499 6.96811 106.529 6.70818 106.528 6.44746Z" fill="white"></path><path d="M108.977 3.42919H110.223V4.59446H110.246C110.29 4.42192 110.367 4.2597 110.474 4.11717C110.59 3.95776 110.727 3.81477 110.882 3.69207C111.042 3.56301 111.221 3.45868 111.412 3.38257C111.601 3.30612 111.802 3.26657 112.006 3.26605C112.113 3.26423 112.22 3.26828 112.327 3.27817L112.507 3.30147V4.58328C112.414 4.56743 112.32 4.55438 112.222 4.54226C112.127 4.5309 112.032 4.52499 111.936 4.52455C111.718 4.52312 111.501 4.56891 111.302 4.65879C111.101 4.75022 110.923 4.88563 110.782 5.05498C110.626 5.24662 110.507 5.46614 110.433 5.70194C110.343 5.98847 110.3 6.28743 110.305 6.58756V9.45414H108.977V3.42919Z" fill="white"></path><path d="M118.122 8.11225C118.113 8.23237 118.135 8.35274 118.186 8.46183C118.215 8.49999 118.253 8.52983 118.298 8.54834C118.342 8.56684 118.39 8.57334 118.437 8.56718H118.577C118.64 8.56629 118.702 8.55847 118.763 8.54387V9.46397C118.717 9.47982 118.656 9.49753 118.583 9.51711C118.509 9.53669 118.433 9.55347 118.355 9.56931C118.277 9.58516 118.2 9.59635 118.122 9.60381C118.056 9.61134 117.99 9.61539 117.924 9.61593C117.688 9.62471 117.455 9.56826 117.249 9.45279C117.07 9.34341 116.953 9.15292 116.899 8.88134C116.624 9.14363 116.291 9.33554 115.926 9.44067C115.565 9.55366 115.19 9.61272 114.813 9.61593C114.548 9.61886 114.285 9.58338 114.03 9.51059C113.793 9.44249 113.57 9.33195 113.372 9.18431C113.181 9.0394 113.025 8.85212 112.917 8.63709C112.8 8.39564 112.742 8.12976 112.749 7.86148C112.735 7.54579 112.806 7.23218 112.953 6.95257C113.081 6.72689 113.266 6.53836 113.489 6.40535C113.72 6.2692 113.972 6.17278 114.235 6.12009C114.51 6.06138 114.788 6.01658 115.067 5.98585C115.295 5.94087 115.524 5.90788 115.755 5.88704C115.95 5.87118 116.143 5.8378 116.332 5.78729C116.483 5.7503 116.622 5.67444 116.734 5.56728C116.786 5.50777 116.826 5.43844 116.851 5.36336C116.876 5.28828 116.885 5.20896 116.879 5.13007C116.886 4.98065 116.843 4.8333 116.757 4.71057C116.678 4.60415 116.574 4.51845 116.454 4.46074C116.327 4.40004 116.191 4.36067 116.052 4.34421C115.913 4.32506 115.772 4.31509 115.632 4.31438C115.309 4.30152 114.99 4.38247 114.712 4.54743C114.591 4.62685 114.492 4.73379 114.421 4.85941C114.35 4.98503 114.31 5.12573 114.304 5.26991H112.975C112.985 4.92909 113.081 4.59632 113.255 4.30319C113.413 4.05211 113.626 3.84065 113.879 3.68513C114.142 3.5259 114.432 3.41539 114.735 3.35885C115.058 3.29656 115.386 3.26535 115.714 3.26563C116.008 3.2658 116.301 3.29705 116.588 3.35885C116.861 3.41559 117.123 3.51801 117.363 3.66182C117.587 3.79709 117.777 3.98289 117.916 4.20438C118.062 4.44845 118.135 4.7293 118.126 5.01354L118.122 8.11225ZM116.794 6.43425C116.568 6.57412 116.312 6.6564 116.048 6.67383C115.753 6.70118 115.458 6.74188 115.162 6.79595C115.024 6.81865 114.888 6.85169 114.755 6.89477C114.63 6.93377 114.511 6.99297 114.405 7.07003C114.302 7.14529 114.22 7.24535 114.167 7.36088C114.105 7.49807 114.075 7.64759 114.079 7.79809C114.075 7.93377 114.12 8.0663 114.207 8.17098C114.292 8.27163 114.397 8.35299 114.516 8.40963C114.641 8.46971 114.775 8.51086 114.912 8.53175C115.041 8.55391 115.171 8.56576 115.302 8.56718C115.463 8.56557 115.624 8.54587 115.78 8.50845C115.951 8.4698 116.115 8.40301 116.264 8.31081C116.413 8.21937 116.542 8.09852 116.643 7.95564C116.747 7.79889 116.8 7.61343 116.794 7.4252V6.43425Z" fill="white"></path><path d="M119.557 3.42918H120.803V4.59445H120.826C120.87 4.42191 120.947 4.25969 121.054 4.11716C121.17 3.95775 121.308 3.81476 121.462 3.69206C121.622 3.563 121.801 3.45867 121.992 3.38256C122.181 3.30611 122.382 3.26656 122.586 3.26604C122.693 3.26425 122.8 3.26829 122.907 3.27816L123.087 3.30146V4.58327C122.994 4.56742 122.901 4.55437 122.802 4.54225C122.707 4.53089 122.612 4.52498 122.516 4.52454C122.298 4.52311 122.081 4.5689 121.882 4.65878C121.681 4.75021 121.504 4.88562 121.362 5.05497C121.206 5.24661 121.087 5.46613 121.013 5.70193C120.923 5.98846 120.88 6.28743 120.885 6.58755V9.45413H119.557V3.42918Z" fill="white"></path><path d="M122.994 3.42867H124.451L126.024 7.92571H126.047L127.574 3.42773H128.96L126.617 9.7799C126.508 10.0512 126.401 10.3122 126.296 10.5602C126.199 10.7963 126.069 11.0181 125.912 11.2192C125.759 11.4103 125.566 11.5653 125.346 11.6732C125.076 11.7953 124.78 11.8531 124.484 11.842C124.176 11.8422 123.868 11.8188 123.564 11.7721V10.6534C123.672 10.6692 123.777 10.687 123.878 10.7065C123.982 10.7257 124.087 10.7354 124.193 10.7354C124.324 10.7394 124.454 10.7195 124.577 10.6767C124.673 10.6417 124.759 10.5838 124.828 10.508C124.897 10.4296 124.954 10.3413 124.997 10.246C125.048 10.1326 125.091 10.0158 125.125 9.89643L125.276 9.43031L122.994 3.42867Z" fill="white"></path><path d="M135.708 9.61734C135.267 9.6248 134.829 9.54365 134.42 9.37869C134.059 9.22974 133.733 9.00501 133.465 8.71961C133.199 8.43088 132.996 8.08947 132.87 7.71747C132.598 6.88876 132.598 5.99469 132.87 5.16598C132.996 4.79398 133.199 4.45257 133.465 4.16384C133.733 3.87845 134.058 3.65398 134.42 3.50569C135.249 3.18625 136.167 3.18625 136.995 3.50569C137.357 3.65421 137.683 3.87865 137.951 4.16384C138.218 4.45247 138.422 4.79384 138.549 5.16598C138.821 5.99485 138.821 6.8886 138.549 7.71747C138.423 8.0893 138.22 8.43063 137.955 8.71961C137.687 9.00479 137.361 9.22949 136.999 9.37869C136.589 9.54404 136.15 9.6252 135.708 9.61734ZM135.708 8.56859C135.976 8.57493 136.241 8.51063 136.477 8.38215C136.69 8.26172 136.874 8.09437 137.013 7.89273C137.155 7.68541 137.259 7.45475 137.322 7.21127C137.453 6.7048 137.453 6.17305 137.322 5.66658C137.261 5.42256 137.156 5.19163 137.013 4.98513C136.872 4.78652 136.689 4.62135 136.477 4.5013C136.239 4.37867 135.975 4.31468 135.708 4.31468C135.44 4.31468 135.177 4.37867 134.939 4.5013C134.727 4.6211 134.544 4.78632 134.403 4.98513C134.259 5.19144 134.154 5.42243 134.094 5.66658C133.961 6.17289 133.961 6.70497 134.094 7.21127C134.156 7.45486 134.26 7.68558 134.403 7.89273C134.542 8.09459 134.725 8.26199 134.939 8.38215C135.174 8.51084 135.44 8.57515 135.708 8.56859Z" fill="white"></path><path d="M139.262 3.42895H140.253V2.92834C140.242 2.61351 140.29 2.29942 140.393 2.00171C140.468 1.79029 140.596 1.60182 140.765 1.4545C140.918 1.32685 141.1 1.23881 141.295 1.19814C141.5 1.15459 141.709 1.13302 141.919 1.13382C142.231 1.12257 142.545 1.1498 142.851 1.21492V2.25248C142.761 2.22823 142.669 2.21078 142.577 2.20028C142.463 2.18741 142.348 2.1815 142.234 2.18257C142.071 2.17809 141.91 2.22258 141.773 2.31028C141.644 2.39604 141.581 2.56291 141.581 2.81182V3.42895H142.711V4.4199H141.581V9.4539H140.253V4.4199H139.262V3.42895Z" fill="white"></path><path d="M146.93 1.13423H148.981L151.276 7.64674H151.299L153.536 1.1333H155.564V9.45339H154.178V3.03317H154.154L151.847 9.45432H150.646L148.338 3.03317H148.315V9.45432H146.929L146.93 1.13423Z" fill="white"></path><path d="M158.162 6.78529C158.161 7.01423 158.194 7.24201 158.26 7.46115C158.321 7.66923 158.422 7.86337 158.558 8.0326C158.694 8.19842 158.865 8.33186 159.058 8.4232C159.285 8.52531 159.532 8.57501 159.781 8.56863C160.17 8.56863 160.483 8.48504 160.72 8.31786C160.971 8.12989 161.157 7.86676 161.249 7.56649H162.507C162.382 8.17789 162.033 8.72038 161.528 9.08694C161.283 9.26406 161.009 9.39805 160.719 9.48314C160.414 9.57336 160.098 9.61858 159.78 9.61738C159.349 9.62515 158.921 9.54588 158.521 9.38432C158.169 9.23742 157.853 9.01462 157.596 8.73177C157.337 8.4415 157.142 8.10006 157.024 7.72963C156.892 7.3153 156.828 6.88259 156.832 6.44782C156.83 6.0333 156.899 5.62149 157.036 5.23034C157.165 4.85837 157.362 4.51417 157.619 4.21608C157.882 3.91052 158.208 3.6668 158.576 3.50241C158.944 3.33802 159.344 3.25702 159.746 3.26521C160.19 3.25845 160.628 3.36056 161.023 3.56259C161.389 3.75274 161.709 4.02138 161.96 4.34939C162.215 4.68483 162.4 5.06721 162.507 5.47458C162.62 5.90183 162.649 6.3468 162.594 6.78529H158.162ZM161.261 5.91179C161.246 5.70439 161.201 5.5003 161.127 5.30585C161.058 5.11953 160.956 4.94758 160.824 4.79872C160.693 4.65281 160.535 4.53404 160.358 4.44914C160.167 4.35786 159.958 4.31192 159.746 4.3149C159.529 4.31185 159.312 4.35373 159.112 4.43795C158.927 4.51496 158.76 4.62993 158.622 4.77541C158.483 4.92316 158.373 5.09503 158.296 5.28254C158.213 5.48219 158.167 5.69555 158.162 5.91179H161.261Z" fill="white"></path><path d="M169.279 9.45432H168.02V8.63862H167.997C167.834 8.97355 167.557 9.23975 167.216 9.39C166.875 9.54167 166.506 9.6192 166.133 9.61746C165.705 9.62706 165.282 9.5414 164.892 9.36669C164.55 9.20944 164.249 8.97637 164.012 8.68524C163.771 8.3834 163.593 8.03674 163.487 7.66538C163.368 7.25467 163.309 6.82887 163.313 6.40129C163.302 5.92182 163.376 5.44426 163.533 4.99084C163.66 4.62787 163.861 4.29479 164.122 4.012C164.355 3.76287 164.642 3.56975 164.961 3.44708C165.267 3.3277 165.594 3.26607 165.923 3.26529C166.114 3.26574 166.305 3.28353 166.493 3.31843C166.686 3.35251 166.873 3.40914 167.053 3.48716C167.23 3.56377 167.397 3.66378 167.549 3.78454C167.698 3.90344 167.826 4.04724 167.927 4.20964H167.95V1.1333H169.279V9.45432ZM164.641 6.5057C164.641 6.76156 164.674 7.01635 164.74 7.2636C164.801 7.50105 164.903 7.7258 165.043 7.92734C165.183 8.13188 165.372 8.29787 165.593 8.40997C165.814 8.52207 166.059 8.57667 166.307 8.56871C166.573 8.57593 166.837 8.51155 167.07 8.38226C167.28 8.2614 167.46 8.09397 167.595 7.89285C167.733 7.68417 167.836 7.45384 167.898 7.21139C167.964 6.95809 167.997 6.69746 167.997 6.43578C167.997 5.76831 167.847 5.24782 167.549 4.87431C167.404 4.69173 167.218 4.5459 167.006 4.44871C166.795 4.35151 166.563 4.30569 166.33 4.31498C166.055 4.30595 165.784 4.37271 165.544 4.50795C165.335 4.63313 165.157 4.80433 165.024 5.00855C164.885 5.22174 164.786 5.45876 164.733 5.70772C164.673 5.96946 164.642 6.2371 164.641 6.5057Z" fill="white"></path><path d="M170.758 1.13379H172.086V2.39229H170.758V1.13379ZM170.758 3.42892H172.086V9.45387H170.758V3.42892Z" fill="white"></path><path d="M177.599 5.44588C177.543 5.07299 177.393 4.79146 177.149 4.60128C176.882 4.40301 176.556 4.30202 176.224 4.31509C176.038 4.31766 175.853 4.34718 175.675 4.40272C175.473 4.46627 175.289 4.57826 175.139 4.729C174.957 4.91847 174.818 5.14525 174.732 5.39367C174.611 5.75162 174.556 6.12832 174.569 6.50581C174.569 6.75691 174.598 7.00714 174.656 7.25159C174.709 7.4879 174.804 7.71292 174.935 7.91627C175.062 8.10917 175.232 8.2705 175.431 8.38797C175.655 8.51399 175.908 8.57653 176.165 8.56882C176.341 8.57512 176.517 8.5464 176.682 8.48431C176.847 8.42222 176.998 8.328 177.126 8.20712C177.379 7.96661 177.536 7.62883 177.599 7.19379H178.927C178.803 7.97873 178.505 8.57877 178.035 8.99392C177.564 9.40906 176.941 9.61695 176.165 9.61757C175.735 9.62582 175.308 9.54454 174.912 9.37892C174.564 9.22863 174.253 9.0062 173.997 8.72637C173.743 8.44039 173.55 8.10449 173.432 7.74008C173.301 7.34163 173.236 6.92435 173.24 6.50488C173.237 6.07459 173.3 5.64636 173.427 5.23519C173.541 4.85694 173.731 4.50606 173.986 4.20416C174.24 3.90867 174.556 3.67361 174.912 3.51618C175.322 3.34108 175.765 3.25559 176.21 3.26541C176.547 3.2637 176.883 3.30888 177.207 3.39965C177.508 3.48305 177.792 3.61907 178.046 3.80144C178.292 3.98186 178.496 4.21219 178.646 4.4773C178.809 4.77567 178.904 5.1059 178.926 5.44494L177.599 5.44588Z" fill="white"></path><path d="M180.045 1.13379H181.373V2.39229H180.045V1.13379ZM180.045 3.42892H181.373V9.45387H180.045V3.42892Z" fill="white"></path><path d="M182.818 3.42933H184.077V4.31494L184.1 4.33824C184.293 4.01313 184.566 3.74264 184.893 3.55238C185.221 3.36046 185.595 3.26123 185.976 3.26525C186.636 3.26525 187.156 3.43616 187.537 3.77798C187.918 4.11979 188.109 4.63251 188.109 5.31614V9.45335H186.78V5.66666C186.764 5.19309 186.663 4.84941 186.477 4.63562C186.292 4.42183 186 4.31494 185.603 4.31494C185.394 4.31149 185.188 4.35348 184.997 4.43799C184.823 4.51594 184.668 4.63113 184.543 4.77545C184.415 4.92492 184.316 5.0969 184.251 5.28258C184.181 5.48065 184.145 5.6895 184.147 5.89972V9.45428H182.818V3.42933Z" fill="white"></path><path d="M190.545 6.78518C190.545 7.01412 190.578 7.2419 190.644 7.46104C190.705 7.66912 190.806 7.86326 190.942 8.03249C191.078 8.19835 191.249 8.33179 191.443 8.42309C191.67 8.52529 191.917 8.575 192.166 8.56852C192.553 8.56852 192.866 8.48493 193.103 8.31775C193.355 8.12988 193.541 7.86675 193.634 7.56638H194.892C194.767 8.17736 194.418 8.71951 193.914 9.08684C193.668 9.26396 193.394 9.39794 193.103 9.48303C192.799 9.57328 192.483 9.61851 192.166 9.61727C191.735 9.62522 191.307 9.54595 190.907 9.38422C190.554 9.23735 190.238 9.01456 189.981 8.73166C189.722 8.44139 189.527 8.09995 189.409 7.72952C189.277 7.31519 189.212 6.88248 189.217 6.44771C189.215 6.03319 189.284 5.62138 189.421 5.23023C189.551 4.85807 189.75 4.51391 190.008 4.21597C190.27 3.91114 190.596 3.66787 190.963 3.50351C191.33 3.33915 191.728 3.25774 192.13 3.26511C192.574 3.25807 193.012 3.3602 193.406 3.56249C193.773 3.75264 194.093 4.02128 194.344 4.34928C194.597 4.68461 194.781 5.06671 194.886 5.47354C194.999 5.9008 195.029 6.34577 194.973 6.78425L190.545 6.78518ZM193.644 5.91169C193.629 5.70429 193.584 5.50019 193.51 5.30574C193.441 5.11942 193.338 4.94747 193.207 4.79861C193.076 4.6527 192.918 4.53393 192.741 4.44903C192.55 4.35766 192.341 4.31171 192.129 4.31479C191.911 4.31174 191.695 4.35363 191.494 4.43784C191.31 4.51531 191.143 4.63022 191.005 4.77531C190.866 4.92306 190.756 5.09492 190.679 5.28244C190.595 5.48208 190.55 5.69544 190.545 5.91169H193.644Z" fill="white"></path><path d="M45.7722 13.5718L47.5546 17.7043H47.5685L48.4029 13.5718H49.0461L47.9899 18.5638H47.2749L45.5037 14.4621H45.4897L44.6432 18.5638H44L45.0562 13.5718H45.7722Z" fill="white"></path><path d="M49.5577 15.5192C49.6504 15.3749 49.7705 15.2501 49.9111 15.1519C50.0554 15.0522 50.2164 14.9789 50.3865 14.9357C50.5667 14.8886 50.7522 14.8651 50.9384 14.8657C51.1071 14.865 51.2755 14.8791 51.4418 14.9077C51.5891 14.9316 51.7311 14.9811 51.8613 15.0541C51.9803 15.1209 52.0801 15.2172 52.1512 15.3337C52.2286 15.4711 52.2664 15.6273 52.2603 15.7849C52.2592 15.8966 52.246 16.0079 52.2211 16.1168C52.1959 16.2352 52.1717 16.3443 52.1484 16.4421L51.9172 17.435C51.9032 17.5095 51.8836 17.5934 51.8575 17.6867C51.8332 17.7732 51.8204 17.8625 51.8193 17.9523C51.8128 18.0149 51.8305 18.0776 51.8687 18.1276C51.8853 18.1438 51.905 18.1565 51.9266 18.1649C51.9483 18.1732 51.9714 18.177 51.9946 18.1761C52.0264 18.1753 52.0579 18.1693 52.0878 18.1584L52.181 18.1276L52.0878 18.5676C52.0296 18.5898 51.9698 18.6073 51.9088 18.6198C51.8478 18.6352 51.7853 18.6437 51.7224 18.645C51.6543 18.6501 51.586 18.6408 51.5218 18.6179C51.4575 18.5949 51.3988 18.5587 51.3495 18.5117C51.3057 18.4611 51.2742 18.4012 51.2572 18.3366C51.2402 18.272 51.2383 18.2043 51.2516 18.1388L51.2376 18.1248C51.1161 18.2892 50.956 18.4211 50.7715 18.5089C50.5357 18.6075 50.2811 18.653 50.0257 18.6422C49.8805 18.6432 49.7357 18.6254 49.595 18.589C49.4683 18.5572 49.3502 18.4976 49.2492 18.4147C49.1481 18.329 49.0681 18.2212 49.0152 18.0996C48.9525 17.9505 48.9226 17.7896 48.9276 17.6279C48.9144 17.4074 48.9747 17.1887 49.0991 17.0061C49.2128 16.8569 49.3635 16.74 49.5363 16.6668C49.7237 16.5868 49.9214 16.5338 50.1236 16.5093C50.338 16.4813 50.5453 16.458 50.7454 16.4393C50.9039 16.4254 51.04 16.4104 51.1546 16.3937C51.2515 16.3819 51.3459 16.3548 51.4343 16.3135C51.5052 16.2797 51.5629 16.2233 51.5984 16.1531C51.637 16.0626 51.6549 15.9644 51.6506 15.866C51.6545 15.7812 51.6299 15.6975 51.5807 15.6283C51.5342 15.5678 51.4746 15.5188 51.4063 15.4847C51.3321 15.4489 51.2529 15.4244 51.1714 15.412C51.0895 15.3982 51.0066 15.3911 50.9235 15.3906C50.8119 15.3907 50.7007 15.4026 50.5916 15.426C50.4867 15.4474 50.3862 15.4861 50.2942 15.5407C50.2071 15.5931 50.1311 15.6622 50.0705 15.7439C50.0074 15.8319 49.9667 15.934 49.9521 16.0413H49.3722C49.3944 15.8556 49.4578 15.6772 49.5577 15.5192ZM49.7255 17.998C49.8606 18.0826 50.0173 18.1263 50.1767 18.1239C50.6478 18.1239 50.9856 17.9654 51.1901 17.6484C51.2861 17.5167 51.3541 17.3666 51.3896 17.2075C51.4241 17.049 51.4632 16.8859 51.5052 16.7181H51.4912C51.3953 16.7835 51.2866 16.8277 51.1724 16.8477C51.0446 16.8728 50.9085 16.8933 50.764 16.9073C50.6195 16.9213 50.4732 16.9381 50.3268 16.9595C50.1914 16.9776 50.0587 17.012 49.9316 17.0621C49.8216 17.1042 49.7234 17.1723 49.6454 17.2606C49.5647 17.3633 49.5225 17.4909 49.526 17.6214C49.523 17.6957 49.5399 17.7695 49.575 17.835C49.6101 17.9006 49.662 17.9556 49.7255 17.9943V17.998Z" fill="white"></path><path d="M54.8954 14.9495L54.7836 15.4734H54.0639L53.6164 17.5988C53.6164 17.6408 53.6071 17.6809 53.6024 17.7182C53.5975 17.7574 53.595 17.797 53.595 17.8365C53.5914 17.8757 53.5998 17.9151 53.6191 17.9494C53.6384 17.9837 53.6677 18.0113 53.7031 18.0286C53.7809 18.0652 53.8661 18.0834 53.952 18.0817C54.0106 18.0816 54.069 18.0757 54.1264 18.064C54.1831 18.0518 54.2391 18.0366 54.2942 18.0183L54.1897 18.5637C54.1198 18.573 54.0499 18.5814 53.98 18.5879C53.9103 18.5954 53.8403 18.5991 53.7702 18.5991C53.6647 18.5996 53.5593 18.5912 53.4552 18.5739C53.3648 18.5596 53.2781 18.528 53.1997 18.4807C53.1279 18.4365 53.068 18.3754 53.0254 18.3027C52.9778 18.2147 52.9549 18.1155 52.9592 18.0155C52.9587 17.9666 52.9622 17.9176 52.9695 17.8692C52.976 17.8226 52.9844 17.7713 52.9937 17.7154L53.4691 15.4706H52.8613L52.9732 14.9467H53.581L53.8047 13.8765H54.3995L54.1758 14.9467L54.8954 14.9495Z" fill="white"></path><path d="M56.1472 14.949L55.3939 18.5633H54.8066L55.5524 14.949H56.1472ZM55.6811 14.2965L55.8349 13.5693H56.4362L56.2824 14.2965H55.6811Z" fill="white"></path><path d="M56.64 16.285C56.7258 16.0196 56.8612 15.7728 57.039 15.5579C57.2139 15.3479 57.4304 15.1765 57.6748 15.0545C57.9392 14.9263 58.2302 14.8624 58.5241 14.868C59.0138 14.868 59.3867 14.9948 59.6427 15.2484C59.8988 15.5019 60.0271 15.8748 60.0277 16.367C60.0282 16.6566 59.9832 16.9444 59.8944 17.22C59.8108 17.4857 59.678 17.7333 59.5029 17.9499C59.3314 18.1616 59.1169 18.3344 58.8736 18.4571C58.6107 18.5858 58.3208 18.6497 58.0281 18.6435C57.8098 18.6466 57.5929 18.6086 57.3886 18.5317C57.2091 18.4644 57.0462 18.3591 56.9112 18.2229C56.7762 18.0868 56.6723 17.9231 56.6065 17.743C56.5351 17.5494 56.4997 17.3443 56.5021 17.138C56.5022 16.8481 56.5488 16.5601 56.64 16.285ZM57.3504 17.8511C57.5169 18.0326 57.7637 18.1237 58.0906 18.1243C58.2955 18.1285 58.4969 18.07 58.6676 17.9565C58.8337 17.8441 58.9762 17.7003 59.0871 17.5332C59.202 17.3614 59.2894 17.1727 59.3463 16.9739C59.4016 16.79 59.4308 16.5992 59.433 16.4071C59.4335 16.2725 59.415 16.1385 59.378 16.0091C59.3435 15.8893 59.2838 15.7784 59.2027 15.6837C59.1206 15.5905 59.0191 15.5163 58.9053 15.4665C58.7715 15.4101 58.6273 15.3828 58.4821 15.3863C58.2695 15.3819 58.0604 15.4403 57.8808 15.5541C57.7084 15.6657 57.5603 15.8109 57.4455 15.9811C57.3286 16.1522 57.2401 16.3411 57.1835 16.5404C57.1275 16.7312 57.098 16.9289 57.0959 17.1277C57.0834 17.3931 57.1754 17.6528 57.3522 17.8511H57.3504Z" fill="white"></path><path d="M61.6988 14.9496L61.5869 15.495H61.6009C61.7445 15.29 61.9402 15.1268 62.1677 15.0223C62.3933 14.9185 62.6389 14.8651 62.8873 14.8657C63.2276 14.8657 63.4812 14.9403 63.6462 15.0895C63.8112 15.2386 63.8941 15.4735 63.8941 15.7952C63.8921 15.8982 63.8827 16.001 63.8662 16.1028C63.8475 16.2286 63.8224 16.3619 63.7897 16.5018L63.3488 18.5639H62.7596L63.2211 16.4524C63.2257 16.4151 63.2323 16.3722 63.2416 16.3228C63.2509 16.2734 63.2602 16.223 63.2695 16.169C63.2789 16.1149 63.2873 16.0646 63.2947 16.0152C63.3007 15.9747 63.3042 15.9339 63.305 15.893C63.3102 15.8192 63.2963 15.7452 63.2644 15.6784C63.2325 15.6116 63.1839 15.5542 63.1232 15.5118C62.9897 15.427 62.8338 15.3845 62.6757 15.3896C62.5068 15.3912 62.3405 15.432 62.19 15.509C62.0362 15.5827 61.8974 15.6845 61.7808 15.8091C61.6733 15.9026 61.5874 16.0184 61.5291 16.1485C61.4678 16.2824 61.4185 16.4216 61.3818 16.5642L60.9623 18.5639H60.375L61.1301 14.9496H61.6988Z" fill="white"></path><path d="M64.8424 15.5192C64.9347 15.375 65.0545 15.2502 65.1948 15.1519C65.3392 15.0522 65.5001 14.9789 65.6702 14.9357C65.8507 14.8886 66.0365 14.8651 66.223 14.8657C66.3917 14.865 66.5602 14.8791 66.7264 14.9077C66.8737 14.9316 67.0157 14.9811 67.1459 15.0541C67.2649 15.1209 67.3648 15.2172 67.4359 15.3337C67.513 15.4712 67.5504 15.6274 67.544 15.7849C67.5432 15.8966 67.5304 16.0079 67.5058 16.1168C67.4806 16.2352 67.4554 16.3443 67.4321 16.4421L67.2019 17.435C67.1879 17.5095 67.1683 17.5934 67.1422 17.6867C67.1179 17.7732 67.105 17.8625 67.104 17.9523C67.0972 18.0148 67.1145 18.0775 67.1525 18.1276C67.169 18.1438 67.1887 18.1565 67.2104 18.1649C67.232 18.1732 67.2551 18.177 67.2783 18.1761C67.3101 18.1752 67.3416 18.1692 67.3715 18.1584L67.4648 18.1276L67.3715 18.5676C67.3137 18.5898 67.2542 18.6073 67.1935 18.6198C67.1325 18.6352 67.0699 18.6436 67.007 18.645C66.939 18.6502 66.8706 18.641 66.8064 18.6181C66.7421 18.5951 66.6834 18.5588 66.6341 18.5117C66.5912 18.4607 66.5605 18.4006 66.5444 18.336C66.5282 18.2714 66.527 18.2039 66.5409 18.1388L66.5269 18.1248C66.4054 18.2891 66.2453 18.421 66.0608 18.5089C65.8265 18.6068 65.5735 18.6523 65.3197 18.6422C65.1748 18.6433 65.0303 18.6254 64.89 18.589C64.7632 18.5572 64.6451 18.4976 64.5441 18.4147C64.443 18.329 64.363 18.2212 64.3101 18.0996C64.2474 17.9505 64.2175 17.7896 64.2225 17.6279C64.2093 17.4074 64.2696 17.1887 64.394 17.0061C64.5074 16.8569 64.6578 16.7399 64.8303 16.6668C65.0176 16.5868 65.2154 16.5338 65.4176 16.5093C65.632 16.4813 65.8396 16.458 66.0403 16.4393C66.1988 16.4254 66.3349 16.4104 66.4496 16.3937C66.5465 16.382 66.6409 16.3549 66.7292 16.3135C66.8004 16.2797 66.8584 16.2233 66.8942 16.1531C66.9329 16.0626 66.9507 15.9644 66.9464 15.866C66.9504 15.7812 66.9258 15.6975 66.8765 15.6283C66.8297 15.5678 66.7698 15.5187 66.7013 15.4847C66.6274 15.4489 66.5485 15.4244 66.4673 15.412C66.3853 15.3982 66.3024 15.3911 66.2193 15.3906C66.1077 15.3907 65.9965 15.4026 65.8874 15.426C65.7826 15.4474 65.6821 15.4861 65.5901 15.5407C65.5029 15.5931 65.4269 15.6622 65.3663 15.7439C65.3029 15.8318 65.262 15.9339 65.247 16.0413H64.6532C64.6764 15.8553 64.7411 15.6769 64.8424 15.5192ZM65.0102 17.998C65.145 18.0826 65.3014 18.1263 65.4605 18.1239C65.9309 18.1239 66.269 17.9654 66.4747 17.6484C66.5708 17.5167 66.6387 17.3666 66.6742 17.2075C66.709 17.049 66.7473 16.8859 66.7889 16.7181H66.7749C66.6794 16.7835 66.571 16.8277 66.457 16.8477C66.3293 16.8728 66.1923 16.8933 66.0478 16.9073C65.9033 16.9213 65.7579 16.9381 65.6115 16.9595C65.4761 16.9773 65.3434 17.0114 65.2162 17.0611C65.106 17.1033 65.0075 17.1714 64.9291 17.2597C64.8486 17.3627 64.8067 17.4907 64.8107 17.6214C64.8077 17.6957 64.8246 17.7695 64.8596 17.835C64.8947 17.9006 64.9467 17.9556 65.0102 17.9943V17.998Z" fill="white"></path><path d="M69.5228 13.5718L68.474 18.5638H67.8867L68.928 13.5718H69.5228Z" fill="white"></path><path d="M75.2871 18.1967C74.921 18.5167 74.4304 18.6765 73.8151 18.6758C73.1315 18.6758 72.6032 18.486 72.2303 18.1063C71.8574 17.7265 71.671 17.1893 71.671 16.4944C71.6682 16.1011 71.7313 15.7101 71.8574 15.3376C71.9763 14.9837 72.1604 14.6552 72.4 14.369C72.6456 14.0763 72.9536 13.8422 73.3013 13.6838C73.6491 13.5254 74.0278 13.4467 74.4099 13.4535C74.6644 13.4509 74.9178 13.4874 75.1612 13.5617C75.3811 13.6276 75.5856 13.737 75.7625 13.8833C75.9359 14.0294 76.0734 14.2135 76.1643 14.4212C76.2668 14.6608 76.3171 14.9195 76.3116 15.18H75.6469C75.6469 14.7885 75.5316 14.4961 75.3011 14.3028C75.0487 14.1018 74.7322 13.9988 74.4099 14.0129C74.0916 14.0049 73.7769 14.0808 73.4972 14.2329C73.2438 14.3749 73.0233 14.569 72.8502 14.8025C72.6751 15.0419 72.5438 15.3105 72.4624 15.5958C72.3766 15.8876 72.3329 16.1902 72.3329 16.4944C72.3311 16.7194 72.3626 16.9433 72.4261 17.1591C72.4802 17.3474 72.5729 17.5223 72.6983 17.6728C72.8234 17.8175 72.9804 17.9311 73.1569 18.0046C73.3641 18.0884 73.5861 18.129 73.8095 18.124C74.2197 18.124 74.5528 18.0155 74.8088 17.7986C75.0809 17.5557 75.2714 17.2347 75.3542 16.8794H76.0189C75.8971 17.4363 75.6531 17.8754 75.2871 18.1967Z" fill="white"></path><path d="M77.1222 17.2485C77.1201 17.377 77.1465 17.5044 77.1996 17.6214C77.2478 17.7272 77.3196 17.8206 77.4093 17.8946C77.4991 17.9671 77.6006 18.0239 77.7095 18.0624C77.8218 18.1019 77.94 18.1221 78.0591 18.122C78.2898 18.1304 78.5175 18.068 78.7116 17.943C78.8913 17.8184 79.0275 17.6408 79.1013 17.435H79.6951C79.6538 17.6232 79.5779 17.8021 79.4714 17.9626C79.3716 18.1092 79.2451 18.2357 79.0985 18.3355C78.9511 18.4373 78.788 18.5142 78.6156 18.563C78.4338 18.6151 78.2454 18.6411 78.0563 18.6403C77.8007 18.6487 77.5464 18.602 77.3105 18.5033C77.1285 18.4246 76.967 18.305 76.8388 18.1537C76.7253 18.0174 76.6421 17.8585 76.5946 17.6876C76.5493 17.5271 76.5258 17.3612 76.5246 17.1945C76.5206 16.8725 76.5714 16.5522 76.6747 16.2473C76.7642 15.979 76.9016 15.7292 77.0802 15.5099C77.2423 15.3112 77.4447 15.1491 77.6741 15.0345C77.8946 14.9241 78.1378 14.8666 78.3844 14.8667C78.9158 14.8667 79.3036 15.0065 79.5478 15.2862C79.7921 15.5659 79.9145 15.9596 79.9151 16.4673C79.9156 16.5563 79.9088 16.6452 79.8946 16.733C79.8806 16.8169 79.8685 16.885 79.8592 16.9362H77.1436C77.1295 17.0397 77.1223 17.1441 77.1222 17.2485ZM79.2999 16.0366C79.277 15.9183 79.2293 15.8062 79.16 15.7076C79.0906 15.6101 78.9984 15.5311 78.8916 15.4773C78.763 15.4151 78.6213 15.385 78.4786 15.3897C78.3196 15.3873 78.1615 15.4145 78.0125 15.4698C77.8801 15.521 77.7581 15.5958 77.6526 15.6908C77.5498 15.7845 77.4626 15.894 77.3944 16.0152C77.3239 16.1403 77.2677 16.2729 77.2266 16.4105H79.3241C79.3338 16.2853 79.3256 16.1595 79.2999 16.0366Z" fill="white"></path><path d="M81.512 14.9496L81.4001 15.495H81.4141C81.5578 15.29 81.7534 15.1268 81.9809 15.0223C82.2066 14.9184 82.4522 14.8649 82.7006 14.8657C83.0412 14.8657 83.2941 14.9403 83.4594 15.0895C83.6247 15.2386 83.7074 15.4739 83.7074 15.7952C83.7053 15.8982 83.696 16.001 83.6794 16.1028C83.6608 16.2286 83.6347 16.3619 83.603 16.5018L83.162 18.5639H82.5682L83.0343 16.4524C83.0343 16.4151 83.0455 16.3722 83.0548 16.3228C83.0642 16.2734 83.0735 16.223 83.0828 16.169C83.0921 16.1149 83.1005 16.0646 83.107 16.0152C83.1138 15.9748 83.1175 15.934 83.1182 15.893C83.123 15.8188 83.1083 15.7445 83.0756 15.6777C83.0429 15.6108 82.9933 15.5536 82.9318 15.5118C82.7983 15.427 82.6424 15.3845 82.4843 15.3896C82.3151 15.3913 82.1485 15.4321 81.9977 15.509C81.8442 15.583 81.7058 15.6847 81.5894 15.8091C81.4816 15.9024 81.3956 16.0182 81.3377 16.1485C81.2764 16.2824 81.2271 16.4216 81.1904 16.5642L80.7709 18.5639H80.1836L80.9387 14.9496H81.512Z" fill="white"></path><path d="M86.3652 14.9496L86.2514 15.4773H85.5336L85.0862 17.6027C85.0862 17.6447 85.0759 17.6848 85.0722 17.7221C85.0672 17.7613 85.0647 17.8009 85.0647 17.8405C85.0611 17.8797 85.0695 17.919 85.0888 17.9533C85.1082 17.9876 85.1375 18.0152 85.1728 18.0325C85.2506 18.0691 85.3358 18.0873 85.4218 18.0856C85.4803 18.0855 85.5387 18.0796 85.5961 18.0679C85.6528 18.0557 85.7088 18.0405 85.7639 18.0222L85.6595 18.5676C85.5896 18.5769 85.5196 18.5853 85.4497 18.5918C85.3801 18.5993 85.31 18.603 85.24 18.603C85.1344 18.6036 85.029 18.5951 84.9249 18.5778C84.8345 18.5635 84.7478 18.5319 84.6695 18.4846C84.5976 18.4404 84.5378 18.3793 84.4951 18.3066C84.4475 18.2186 84.4246 18.1194 84.4289 18.0194C84.4285 17.9705 84.4319 17.9215 84.4392 17.8731C84.4457 17.8265 84.4541 17.7752 84.4634 17.7193L84.9389 15.4745H84.3311L84.4429 14.9506H85.0507L85.2745 13.8804H85.8692L85.6455 14.9506L86.3652 14.9496Z" fill="white"></path><path d="M86.9658 17.2488C86.9633 17.3773 86.9897 17.5047 87.0431 17.6216C87.0914 17.7274 87.1631 17.8208 87.2529 17.8948C87.3426 17.9675 87.4441 18.0243 87.5531 18.0626C87.6654 18.1021 87.7836 18.1223 87.9026 18.1222C88.1333 18.1306 88.3611 18.0682 88.5552 17.9433C88.7341 17.8167 88.8685 17.637 88.9393 17.4296H89.534C89.4927 17.6178 89.4169 17.7967 89.3103 17.9572C89.2104 18.1038 89.084 18.2303 88.9374 18.3301C88.7905 18.4321 88.6276 18.509 88.4555 18.5576C88.2736 18.6097 88.0853 18.6357 87.8961 18.635C87.6406 18.6434 87.3862 18.5966 87.1503 18.4979C86.9683 18.4193 86.8069 18.2996 86.6786 18.1483C86.5648 18.0122 86.4815 17.8533 86.4344 17.6822C86.3891 17.5217 86.3656 17.3559 86.3645 17.1891C86.3605 16.8671 86.4112 16.5469 86.5146 16.2419C86.6041 15.9737 86.7415 15.7238 86.9201 15.5046C87.0821 15.3058 87.2845 15.1438 87.5139 15.0291C87.7344 14.9187 87.9776 14.8612 88.2243 14.8613C88.7556 14.8613 89.1434 15.0012 89.3877 15.2808C89.6319 15.5605 89.7544 15.9542 89.755 16.462C89.7555 16.5509 89.7486 16.6398 89.7345 16.7276C89.7205 16.8115 89.7084 16.8796 89.699 16.9309H86.9863C86.9726 17.0363 86.9658 17.1425 86.9658 17.2488ZM89.1406 16.0369C89.1177 15.9185 89.0701 15.8064 89.0008 15.7078C88.9312 15.6101 88.8387 15.531 88.7314 15.4775C88.6032 15.4152 88.4618 15.3851 88.3194 15.3899C88.1604 15.3875 88.0023 15.4147 87.8532 15.4701C87.7208 15.5212 87.5989 15.5961 87.4934 15.691C87.3906 15.7847 87.3034 15.8942 87.2352 16.0154C87.1647 16.1405 87.1084 16.2731 87.0674 16.4107H89.1649C89.1741 16.2856 89.1659 16.1598 89.1406 16.0369Z" fill="white"></path><path d="M91.3353 14.9493L91.161 15.7249H91.175C91.3086 15.4848 91.4909 15.2753 91.7101 15.1096C91.9355 14.9438 92.2097 14.8578 92.4894 14.8654C92.5244 14.8654 92.5593 14.8629 92.5938 14.8579C92.6291 14.8537 92.6649 14.8562 92.6992 14.8654L92.5593 15.5012C92.5286 15.4956 92.4973 15.4934 92.4661 15.4947H92.3822C92.3076 15.4947 92.2471 15.4947 92.2014 15.4947C92.1421 15.4994 92.0833 15.51 92.0261 15.5263C91.8666 15.5667 91.7175 15.6408 91.5889 15.7436C91.4588 15.849 91.3467 15.975 91.257 16.1164C91.1742 16.2425 91.1113 16.3805 91.0706 16.5257C91.024 16.6814 90.9867 16.8277 90.9587 16.9629L90.6166 18.5635H90.0293L90.7751 14.9493H91.3353Z" fill="white"></path><path d="M94.5479 15.4775L94.6523 14.9536H95.2676C95.3142 14.7671 95.3608 14.5947 95.3972 14.4222C95.4325 14.262 95.4902 14.1076 95.5687 13.9635C95.643 13.8313 95.7502 13.7205 95.88 13.6419C96.0519 13.5509 96.2453 13.5087 96.4394 13.5198C96.5233 13.5198 96.6072 13.5198 96.6911 13.5301C96.7738 13.5372 96.8556 13.5525 96.9353 13.5757L96.8421 14.0791C96.7908 14.0698 96.7423 14.0614 96.6957 14.0549C96.6516 14.0479 96.6071 14.0445 96.5624 14.0446C96.4451 14.0374 96.3283 14.0654 96.2268 14.1248C96.1474 14.1772 96.0831 14.2495 96.0404 14.3346C95.9954 14.4262 95.964 14.5238 95.9472 14.6245C95.9257 14.7317 95.8987 14.8417 95.8661 14.9536H96.5587L96.4655 15.4775H95.7663L95.1016 18.5678H94.5078L95.179 15.4775H94.5479Z" fill="white"></path><path d="M96.6528 16.285C96.7386 16.0196 96.874 15.7728 97.0518 15.5579C97.2267 15.348 97.4432 15.1766 97.6876 15.0545C97.9519 14.926 98.243 14.8621 98.5368 14.8681C99.0266 14.8681 99.3995 14.9948 99.6555 15.2484C99.9116 15.502 100.04 15.8749 100.041 16.3671C100.041 16.6566 99.996 16.9445 99.9072 17.2201C99.8236 17.4858 99.6908 17.7334 99.5157 17.95C99.3441 18.1616 99.1297 18.3345 98.8864 18.4571C98.6235 18.5858 98.3336 18.6497 98.0409 18.6436C97.8226 18.6466 97.6057 18.6086 97.4014 18.5317C97.2224 18.4644 97.06 18.3592 96.9254 18.2235C96.7907 18.0877 96.6869 17.9244 96.6211 17.7449C96.5498 17.5513 96.5144 17.3462 96.5167 17.1399C96.516 16.8495 96.562 16.5609 96.6528 16.285ZM97.3622 17.8512C97.53 18.0326 97.7771 18.1237 98.1034 18.1243C98.3083 18.1285 98.5097 18.07 98.6804 17.9565C98.8461 17.8437 98.9885 17.7 99.0999 17.5333C99.2148 17.3614 99.3022 17.1727 99.3591 16.9739C99.4144 16.79 99.4435 16.5992 99.4458 16.4072C99.4465 16.2725 99.4276 16.1384 99.3898 16.0091C99.3569 15.8891 99.2974 15.778 99.2158 15.6841C99.1341 15.5902 99.0324 15.5158 98.9181 15.4665C98.7843 15.4102 98.6401 15.3828 98.4949 15.3864C98.2823 15.3819 98.0732 15.4403 97.8936 15.5542C97.7222 15.6648 97.5748 15.8087 97.4601 15.9774C97.3432 16.1485 97.2547 16.3374 97.1982 16.5367C97.1421 16.7276 97.1127 16.9252 97.1105 17.124C97.0962 17.39 97.1865 17.651 97.3622 17.8512Z" fill="white"></path><path d="M101.692 14.9494L101.516 15.725H101.53C101.664 15.4849 101.846 15.2753 102.065 15.1097C102.291 14.9439 102.565 14.8579 102.845 14.8655C102.88 14.8655 102.915 14.863 102.95 14.858C102.985 14.8537 103.021 14.8562 103.055 14.8655L102.915 15.5012C102.884 15.4956 102.853 15.4934 102.822 15.4947H102.738C102.663 15.4947 102.602 15.4947 102.556 15.4947C102.497 15.4996 102.438 15.5102 102.381 15.5264C102.221 15.5668 102.072 15.6409 101.943 15.7436C101.813 15.8491 101.701 15.975 101.611 16.1165C101.529 16.2425 101.466 16.3806 101.425 16.5258C101.378 16.6814 101.341 16.8278 101.313 16.963L100.97 18.5636H100.383L101.129 14.9494H101.692Z" fill="white"></path><path d="M107.78 13.5718C108.27 13.5718 108.624 13.6768 108.843 13.8869C109.062 14.0969 109.171 14.3906 109.172 14.7678C109.171 15.0457 109.081 15.3159 108.917 15.5397C108.835 15.6497 108.734 15.7444 108.619 15.8194C108.499 15.8982 108.363 15.9497 108.221 15.9704V15.9844C108.439 16.0423 108.631 16.1712 108.767 16.3507C108.906 16.545 108.977 16.7801 108.969 17.0191C108.972 17.241 108.926 17.4608 108.833 17.6624C108.745 17.8495 108.618 18.0152 108.46 18.1481C108.293 18.2835 108.104 18.3878 107.9 18.4557C107.677 18.529 107.444 18.5656 107.209 18.5638H104.74L105.782 13.5718H107.78ZM107.095 18.0045C107.205 18.0025 107.315 17.9944 107.424 17.9803C107.563 17.9622 107.698 17.9196 107.822 17.8544C107.957 17.7828 108.073 17.681 108.161 17.557C108.265 17.3975 108.315 17.2091 108.305 17.0191C108.311 16.8857 108.282 16.7531 108.221 16.6341C108.168 16.5394 108.089 16.4618 107.994 16.4104C107.891 16.357 107.779 16.3217 107.665 16.306C107.536 16.287 107.407 16.2776 107.277 16.278H105.851L105.487 18.0045H107.095ZM107.445 15.7187C108.153 15.7187 108.507 15.4017 108.507 14.7678C108.515 14.6443 108.482 14.5217 108.414 14.4182C108.351 14.3359 108.268 14.2716 108.173 14.2318C108.071 14.1889 107.964 14.1618 107.855 14.1516C107.747 14.14 107.638 14.1341 107.529 14.1339H106.294L105.959 15.7187H107.445Z" fill="white"></path><path d="M110.786 14.949L110.031 18.5633H109.443L110.189 14.949H110.786ZM110.32 14.2965L110.473 13.5693H111.075L110.921 14.2965H110.32Z" fill="white"></path><path d="M111.279 16.285C111.364 16.0196 111.499 15.7729 111.677 15.5579C111.852 15.3479 112.069 15.1765 112.314 15.0545C112.578 14.926 112.869 14.8621 113.163 14.8681C113.653 14.8681 114.025 14.9948 114.281 15.2484C114.538 15.502 114.666 15.8749 114.666 16.3671C114.666 16.6566 114.622 16.9444 114.533 17.2201C114.45 17.4858 114.317 17.7334 114.142 17.95C113.97 18.1616 113.756 18.3345 113.512 18.4571C113.249 18.5858 112.959 18.6497 112.666 18.6436C112.448 18.6465 112.231 18.6086 112.026 18.5317C111.847 18.4645 111.685 18.3595 111.551 18.2236C111.416 18.0878 111.313 17.9245 111.247 17.7449C111.176 17.5513 111.14 17.3462 111.143 17.1399C111.142 16.8494 111.188 16.5608 111.279 16.285ZM111.988 17.8512C112.156 18.0326 112.405 18.1237 112.734 18.1243C112.939 18.1284 113.14 18.0699 113.311 17.9565C113.477 17.8436 113.619 17.7 113.731 17.5333C113.845 17.3614 113.932 17.1727 113.989 16.9739C114.045 16.7901 114.074 16.5993 114.076 16.4072C114.077 16.2725 114.058 16.1384 114.02 16.0091C113.987 15.8894 113.927 15.7786 113.846 15.6847C113.764 15.5909 113.663 15.5164 113.549 15.4665C113.415 15.4104 113.271 15.3831 113.126 15.3864C112.913 15.3819 112.704 15.4403 112.524 15.5542C112.353 15.6648 112.205 15.8087 112.091 15.9774C111.973 16.1483 111.885 16.3372 111.829 16.5367C111.772 16.7275 111.743 16.9251 111.741 17.124C111.726 17.3894 111.814 17.6503 111.988 17.8512Z" fill="white"></path><path d="M117.303 14.9495L117.191 15.4734H116.47L116.023 17.5988C116.023 17.6408 116.013 17.6809 116.009 17.7182C116.004 17.7574 116.002 17.797 116.002 17.8365C115.998 17.8758 116.007 17.9152 116.026 17.9495C116.045 17.9839 116.075 18.0114 116.11 18.0286C116.188 18.065 116.273 18.0832 116.358 18.0817C116.417 18.0816 116.476 18.0757 116.534 18.064C116.59 18.0518 116.646 18.0366 116.701 18.0183L116.596 18.5637C116.526 18.573 116.456 18.5814 116.386 18.5879C116.317 18.5954 116.247 18.5991 116.176 18.5991C116.071 18.5996 115.966 18.5912 115.862 18.5739C115.772 18.5596 115.685 18.528 115.607 18.4807C115.535 18.4365 115.475 18.3754 115.433 18.3027C115.385 18.2148 115.361 18.1156 115.365 18.0155C115.365 17.9665 115.369 17.9176 115.377 17.8692C115.383 17.8226 115.392 17.7713 115.401 17.7154L115.876 15.4706H115.268L115.379 14.9467H115.989L116.213 13.8765H116.807L116.583 14.9467L117.303 14.9495Z" fill="white"></path><path d="M117.903 17.2488C117.901 17.3772 117.927 17.5045 117.98 17.6216C118.028 17.7274 118.1 17.8208 118.19 17.8948C118.28 17.9673 118.382 18.024 118.491 18.0626C118.603 18.1021 118.721 18.1223 118.84 18.1222C119.073 18.1316 119.302 18.0691 119.497 17.9433C119.676 17.8164 119.81 17.6368 119.882 17.4296H120.476C120.435 17.6178 120.359 17.7967 120.253 17.9572C120.153 18.1038 120.026 18.2303 119.88 18.3301C119.733 18.4319 119.57 18.5088 119.398 18.5576C119.216 18.6097 119.028 18.6357 118.838 18.635C118.583 18.6434 118.329 18.5966 118.093 18.4979C117.91 18.4195 117.749 18.2998 117.621 18.1483C117.507 18.0121 117.424 17.8532 117.376 17.6822C117.331 17.5217 117.307 17.3559 117.306 17.1891C117.302 16.8672 117.353 16.547 117.456 16.2419C117.546 15.9738 117.684 15.724 117.862 15.5046C118.024 15.3056 118.227 15.1435 118.456 15.0291C118.676 14.9186 118.919 14.8611 119.166 14.8613C119.697 14.8613 120.085 15.0012 120.33 15.2808C120.575 15.5605 120.697 15.9542 120.697 16.462C120.697 16.551 120.69 16.6398 120.676 16.7276C120.662 16.8115 120.651 16.8796 120.641 16.9309H117.921C117.908 17.0363 117.902 17.1425 117.903 17.2488ZM120.081 16.0369C120.057 15.9188 120.01 15.8068 119.941 15.7078C119.871 15.6105 119.779 15.5315 119.672 15.4775C119.544 15.4153 119.402 15.3852 119.26 15.3899C119.101 15.3875 118.943 15.4146 118.794 15.4701C118.661 15.521 118.539 15.5959 118.434 15.691C118.331 15.7847 118.243 15.8942 118.175 16.0154C118.104 16.1405 118.048 16.2731 118.007 16.4107H120.104C120.114 16.2856 120.106 16.1598 120.081 16.0369Z" fill="white"></path><path d="M123.699 15.5753C123.544 15.4438 123.343 15.3771 123.14 15.3888C122.928 15.3846 122.719 15.4377 122.535 15.5426C122.362 15.6436 122.212 15.7795 122.095 15.9416C121.974 16.1075 121.883 16.293 121.826 16.4898C121.766 16.6837 121.734 16.8853 121.732 17.0883C121.732 17.2222 121.747 17.3558 121.777 17.4863C121.805 17.6051 121.856 17.7171 121.928 17.8154C122.002 17.9116 122.098 17.9884 122.208 18.0391C122.341 18.099 122.485 18.1277 122.631 18.123C122.865 18.1284 123.094 18.057 123.284 17.9198C123.466 17.7835 123.605 17.5964 123.682 17.3819H124.276C124.194 17.7525 123.987 18.0834 123.689 18.3188C123.38 18.5409 123.006 18.6541 122.626 18.6404C122.129 18.6404 121.756 18.5052 121.508 18.2349C121.259 17.9645 121.135 17.5823 121.135 17.0883C121.134 16.8056 121.177 16.5247 121.264 16.2558C121.347 15.9972 121.477 15.7565 121.648 15.5464C121.828 15.3268 122.055 15.1512 122.312 15.0331C122.57 14.915 122.851 14.8574 123.134 14.8649C123.545 14.8649 123.87 14.9637 124.11 15.1613C124.349 15.359 124.476 15.6697 124.491 16.0936H123.897C123.903 15.9981 123.888 15.9024 123.854 15.813C123.82 15.7236 123.767 15.6425 123.699 15.5753Z" fill="white"></path><path d="M126.363 13.5716L125.936 15.4771L125.95 15.491C126.094 15.286 126.29 15.1229 126.517 15.0184C126.743 14.9146 126.989 14.8611 127.237 14.8618C127.577 14.8618 127.83 14.9364 127.996 15.0855C128.162 15.2347 128.244 15.4699 128.244 15.7912C128.242 15.8943 128.232 15.9971 128.216 16.0989C128.197 16.2247 128.172 16.358 128.139 16.4978L127.698 18.5599H127.105L127.571 16.4484C127.571 16.4111 127.582 16.3683 127.591 16.3189C127.601 16.2695 127.61 16.2191 127.619 16.165C127.628 16.111 127.637 16.0606 127.643 16.0112C127.65 15.9708 127.654 15.93 127.655 15.8891C127.66 15.8153 127.646 15.7413 127.614 15.6745C127.582 15.6076 127.533 15.5502 127.473 15.5078C127.339 15.4231 127.183 15.3805 127.025 15.3857C126.856 15.3873 126.69 15.4282 126.539 15.505C126.385 15.579 126.247 15.6808 126.13 15.8052C126.023 15.8987 125.937 16.0145 125.879 16.1445C125.817 16.2785 125.768 16.4176 125.731 16.5603L125.312 18.5599H124.725L125.773 13.5679L126.363 13.5716Z" fill="white"></path><path d="M129.937 14.9496L129.825 15.495H129.839C129.983 15.29 130.178 15.1268 130.406 15.0223C130.631 14.9185 130.877 14.8651 131.125 14.8657C131.466 14.8657 131.719 14.9403 131.884 15.0895C132.05 15.2386 132.132 15.4738 132.132 15.7952C132.13 15.8982 132.121 16.001 132.104 16.1028C132.086 16.2286 132.06 16.3619 132.028 16.5018L131.587 18.5639H130.993L131.459 16.4524C131.459 16.4151 131.47 16.3722 131.48 16.3228C131.489 16.2734 131.498 16.223 131.508 16.169C131.517 16.1149 131.525 16.0646 131.532 16.0152C131.539 15.9748 131.542 15.934 131.543 15.893C131.548 15.8188 131.533 15.7445 131.5 15.6777C131.468 15.6108 131.418 15.5536 131.357 15.5118C131.223 15.427 131.067 15.3845 130.909 15.3896C130.74 15.3913 130.573 15.4321 130.422 15.509C130.269 15.583 130.131 15.6847 130.014 15.8091C129.907 15.9026 129.821 16.0184 129.762 16.1485C129.701 16.2824 129.652 16.4216 129.615 16.5642L129.196 18.5639H128.608L129.363 14.9496H129.937Z" fill="white"></path><path d="M132.778 16.285C132.863 16.0196 132.998 15.7729 133.176 15.5579C133.351 15.3479 133.568 15.1765 133.813 15.0545C134.077 14.926 134.368 14.8621 134.662 14.8681C135.152 14.8681 135.524 14.9948 135.781 15.2484C136.037 15.502 136.165 15.8749 136.166 16.3671C136.166 16.6566 136.121 16.9445 136.032 17.2201C135.949 17.4858 135.816 17.7334 135.641 17.95C135.469 18.1616 135.255 18.3345 135.011 18.4571C134.748 18.5858 134.459 18.6497 134.166 18.6436C133.947 18.6465 133.73 18.6086 133.525 18.5317C133.347 18.4642 133.185 18.3589 133.05 18.2232C132.916 18.0874 132.812 17.9243 132.746 17.7449C132.675 17.5513 132.639 17.3462 132.642 17.1399C132.641 16.8494 132.687 16.5608 132.778 16.285ZM133.487 17.8512C133.655 18.0326 133.904 18.1237 134.233 18.1243C134.438 18.1284 134.639 18.0699 134.81 17.9565C134.976 17.8437 135.118 17.7 135.23 17.5333C135.344 17.3614 135.431 17.1727 135.488 16.9739C135.544 16.7901 135.573 16.5993 135.575 16.4072C135.576 16.2725 135.557 16.1384 135.519 16.0091C135.487 15.8891 135.427 15.778 135.345 15.6841C135.264 15.5902 135.162 15.5158 135.048 15.4665C134.914 15.4104 134.77 15.3831 134.625 15.3864C134.412 15.3819 134.203 15.4403 134.023 15.5542C133.852 15.6648 133.705 15.8087 133.59 15.9774C133.473 16.1483 133.384 16.3372 133.328 16.5367C133.271 16.7275 133.242 16.9251 133.24 17.124C133.225 17.3894 133.313 17.6503 133.487 17.8512Z" fill="white"></path><path d="M138.144 13.5718L137.095 18.5638H136.508L137.55 13.5718H138.144Z" fill="white"></path><path d="M138.344 16.285C138.43 16.0196 138.565 15.7729 138.742 15.5579C138.917 15.3479 139.134 15.1765 139.379 15.0545C139.643 14.926 139.934 14.8621 140.228 14.8681C140.718 14.8681 141.091 14.9948 141.347 15.2484C141.603 15.502 141.731 15.8749 141.731 16.3671C141.732 16.6566 141.687 16.9444 141.599 17.2201C141.515 17.4858 141.382 17.7334 141.207 17.95C141.035 18.1616 140.821 18.3345 140.578 18.4571C140.314 18.5858 140.024 18.6497 139.731 18.6436C139.513 18.6465 139.296 18.6086 139.092 18.5317C138.913 18.4645 138.75 18.3595 138.616 18.2236C138.481 18.0878 138.378 17.9245 138.312 17.7449C138.241 17.5513 138.205 17.3463 138.207 17.1399C138.206 16.8494 138.253 16.5607 138.344 16.285ZM139.054 17.8512C139.221 18.0326 139.468 18.1237 139.795 18.1243C140 18.1284 140.201 18.0699 140.372 17.9565C140.537 17.8436 140.68 17.7 140.791 17.5333C140.906 17.3614 140.993 17.1727 141.049 16.9739C141.105 16.7901 141.135 16.5993 141.137 16.4072C141.138 16.2725 141.119 16.1384 141.081 16.0091C141.048 15.8894 140.988 15.7786 140.906 15.6847C140.825 15.5909 140.723 15.5164 140.609 15.4665C140.476 15.4104 140.331 15.3831 140.186 15.3864C139.974 15.3819 139.764 15.4403 139.585 15.5542C139.414 15.6648 139.266 15.8087 139.151 15.9774C139.034 16.1483 138.946 16.3372 138.89 16.5367C138.833 16.7275 138.804 16.9251 138.802 17.124C138.788 17.39 138.878 17.651 139.054 17.8512Z" fill="white"></path><path d="M145.179 18.5739C145.138 18.7249 145.089 18.8734 145.031 19.0185C144.911 19.3424 144.684 19.6158 144.388 19.7941C144.081 19.956 143.736 20.0356 143.389 20.0253C143.209 20.0259 143.029 20.0047 142.854 19.9619C142.693 19.9242 142.54 19.8579 142.403 19.7662C142.271 19.6769 142.163 19.5586 142.085 19.4203C141.999 19.2626 141.955 19.086 141.955 18.9067H142.542C142.546 19.0121 142.578 19.1146 142.636 19.2031C142.687 19.2793 142.757 19.3417 142.838 19.3849C142.925 19.4319 143.02 19.4634 143.118 19.4781C143.226 19.4942 143.336 19.5023 143.446 19.5024C143.64 19.5094 143.833 19.4661 144.005 19.3765C144.148 19.296 144.272 19.1838 144.365 19.0484C144.462 18.905 144.536 18.7479 144.586 18.5823C144.639 18.407 144.689 18.2317 144.736 18.0546L144.722 18.0406C144.604 18.2258 144.434 18.3718 144.232 18.4601C144.031 18.5451 143.814 18.588 143.596 18.586C143.393 18.5901 143.192 18.553 143.005 18.4769C142.841 18.4097 142.697 18.3042 142.582 18.1693C142.467 18.0305 142.38 17.8702 142.327 17.6976C142.267 17.503 142.237 17.3001 142.239 17.0963C142.24 16.8254 142.284 16.5564 142.369 16.2992C142.452 16.0409 142.578 15.7984 142.742 15.5824C142.901 15.3715 143.102 15.1955 143.332 15.065C143.573 14.9305 143.846 14.862 144.122 14.8664C144.254 14.8656 144.384 14.8831 144.51 14.9186C144.631 14.9522 144.746 15.0014 144.853 15.065C144.955 15.1256 145.045 15.2039 145.119 15.2962C145.19 15.3855 145.242 15.4892 145.269 15.6001V15.6141H145.283L145.395 14.9503H145.954L145.302 18.0406C145.266 18.2265 145.225 18.4042 145.179 18.5739ZM142.899 17.4664C142.934 17.5784 142.99 17.6829 143.063 17.774C143.139 17.8652 143.235 17.9379 143.343 17.9866C143.466 18.0429 143.6 18.0707 143.735 18.0677C143.942 18.0721 144.146 18.0136 144.319 17.8999C144.484 17.7881 144.623 17.6425 144.728 17.4729C144.835 17.2994 144.917 17.1109 144.969 16.9136C145.02 16.7258 145.047 16.5321 145.049 16.3375C145.061 16.0889 144.981 15.8446 144.823 15.6523C144.67 15.4795 144.438 15.3931 144.126 15.3931C143.928 15.3896 143.734 15.4512 143.574 15.5684C143.415 15.685 143.28 15.8309 143.175 15.9981C143.068 16.1693 142.985 16.3552 142.931 16.55C142.878 16.7283 142.85 16.9131 142.847 17.0991C142.846 17.2235 142.863 17.3474 142.899 17.4664Z" fill="white"></path><path d="M147.033 19.5042C146.962 19.6043 146.88 19.6957 146.788 19.7764C146.699 19.854 146.597 19.9155 146.487 19.9582C146.362 20.0053 146.229 20.0281 146.096 20.0253C146.023 20.025 145.95 20.0165 145.879 20.0001C145.812 19.9865 145.746 19.9642 145.684 19.9339L145.788 19.452C145.841 19.4825 145.897 19.506 145.956 19.5219C146.01 19.5384 146.067 19.5478 146.124 19.5499C146.243 19.5553 146.36 19.5165 146.453 19.4408C146.544 19.3603 146.621 19.2659 146.683 19.1611L147.047 18.5664L146.411 14.9521H147.047L147.466 17.8253H147.48L148.998 14.9521H149.65L147.259 19.1751C147.18 19.2888 147.105 19.3988 147.033 19.5042Z" fill="white"></path><path d="M153.185 13.5718L152.136 18.5638H151.473L152.521 13.5718H153.185Z" fill="white"></path><path d="M154.533 14.9496L154.421 15.495H154.435C154.578 15.29 154.774 15.1268 155.001 15.0223C155.227 14.9185 155.473 14.8651 155.721 14.8657C156.061 14.8657 156.315 14.9403 156.48 15.0895C156.645 15.2386 156.728 15.4735 156.728 15.7952C156.726 15.8982 156.716 16.001 156.7 16.1028C156.681 16.2286 156.656 16.3619 156.623 16.5018L156.183 18.5639H155.589L156.055 16.4524C156.055 16.4151 156.066 16.3722 156.075 16.3228C156.085 16.2734 156.094 16.223 156.103 16.169C156.113 16.1149 156.121 16.0646 156.128 16.0152C156.135 15.9747 156.138 15.9339 156.139 15.893C156.144 15.8188 156.129 15.7445 156.096 15.6777C156.063 15.6108 156.014 15.5536 155.952 15.5118C155.819 15.427 155.663 15.3845 155.505 15.3896C155.336 15.3912 155.17 15.432 155.019 15.509C154.865 15.5827 154.726 15.6845 154.61 15.8091C154.502 15.9026 154.416 16.0184 154.358 16.1485C154.297 16.2824 154.248 16.4216 154.211 16.5642L153.791 18.5639H153.204L153.959 14.9496H154.533Z" fill="white"></path><path d="M157.336 15.4775L157.44 14.9536H158.055C158.102 14.7671 158.148 14.5947 158.185 14.4222C158.22 14.262 158.278 14.1076 158.356 13.9635C158.431 13.8313 158.538 13.7205 158.668 13.6419C158.839 13.5509 159.033 13.5087 159.227 13.5198C159.311 13.5198 159.395 13.5198 159.479 13.5301C159.561 13.5372 159.643 13.5525 159.723 13.5757L159.63 14.0791C159.578 14.0698 159.53 14.0614 159.483 14.0549C159.439 14.0479 159.395 14.0445 159.35 14.0446C159.233 14.0374 159.116 14.0654 159.014 14.1248C158.935 14.1772 158.871 14.2495 158.828 14.3346C158.783 14.4262 158.752 14.5238 158.735 14.6245C158.713 14.7317 158.686 14.8417 158.654 14.9536H159.337L159.244 15.4775H158.545L157.88 18.5678H157.286L157.957 15.4775H157.336Z" fill="white"></path><path d="M159.444 16.285C159.53 16.0196 159.665 15.7728 159.843 15.5579C160.018 15.3479 160.234 15.1765 160.479 15.0545C160.743 14.9263 161.034 14.8624 161.328 14.868C161.818 14.868 162.19 14.9948 162.447 15.2484C162.703 15.5019 162.831 15.8748 162.832 16.367C162.832 16.6566 162.787 16.9444 162.698 17.22C162.615 17.4857 162.482 17.7333 162.307 17.9499C162.135 18.1616 161.921 18.3344 161.677 18.4571C161.414 18.5858 161.125 18.6497 160.832 18.6435C160.614 18.6466 160.397 18.6086 160.192 18.5317C160.013 18.4643 159.851 18.3592 159.716 18.2234C159.582 18.0876 159.478 17.9244 159.412 17.7449C159.341 17.5512 159.305 17.3462 159.308 17.1398C159.307 16.8495 159.353 16.5608 159.444 16.285ZM160.153 17.8511C160.321 18.0326 160.57 18.1237 160.899 18.1243C161.104 18.1285 161.305 18.07 161.476 17.9565C161.642 17.8441 161.785 17.7003 161.896 17.5332C162.01 17.3614 162.098 17.1727 162.155 16.9739C162.21 16.79 162.239 16.5992 162.241 16.4071C162.242 16.2724 162.223 16.1383 162.185 16.0091C162.153 15.889 162.093 15.778 162.011 15.684C161.93 15.5901 161.828 15.5158 161.714 15.4665C161.58 15.4101 161.436 15.3828 161.291 15.3863C161.078 15.3819 160.869 15.4403 160.689 15.5541C160.518 15.6648 160.371 15.8087 160.256 15.9774C160.139 16.1485 160.05 16.3373 159.994 16.5367C159.938 16.7275 159.908 16.9251 159.906 17.124C159.891 17.3893 159.979 17.6503 160.153 17.8511Z" fill="white"></path><path d="M164.482 14.9494L164.307 15.725H164.321C164.455 15.4849 164.637 15.2753 164.856 15.1097C165.082 14.944 165.356 14.8581 165.636 14.8655C165.671 14.8655 165.706 14.863 165.741 14.858C165.776 14.8537 165.811 14.8562 165.845 14.8655L165.706 15.5012C165.675 15.4956 165.644 15.4934 165.612 15.4947H165.528C165.454 15.4947 165.392 15.4947 165.342 15.4947C165.283 15.4996 165.224 15.5102 165.167 15.5264C165.007 15.5666 164.859 15.6407 164.73 15.7436C164.6 15.8488 164.487 15.9748 164.398 16.1165C164.315 16.2425 164.252 16.3806 164.211 16.5258C164.165 16.6814 164.127 16.8278 164.099 16.963L163.756 18.5636H163.169L163.915 14.9494H164.482Z" fill="white"></path><path d="M166.817 14.9496L166.683 15.4875L166.697 15.5015C166.848 15.3082 167.039 15.1493 167.257 15.0353C167.473 14.9217 167.715 14.8631 167.959 14.8648C168.165 14.8586 168.368 14.9093 168.547 15.0111C168.633 15.0676 168.706 15.1416 168.761 15.2284C168.817 15.3152 168.853 15.4127 168.868 15.5145C169.01 15.3171 169.196 15.1555 169.411 15.0428C169.624 14.9258 169.863 14.8646 170.106 14.8648C170.232 14.8644 170.357 14.8794 170.479 14.9095C170.595 14.9378 170.705 14.9851 170.805 15.0493C170.9 15.1124 170.978 15.1979 171.032 15.2982C171.091 15.4136 171.119 15.5418 171.116 15.6711C171.114 15.7931 171.103 15.9147 171.081 16.0347C171.057 16.1699 171.034 16.2883 171.011 16.3908L170.557 18.5582H169.962L170.465 16.265C170.481 16.1991 170.494 16.1326 170.503 16.0655C170.514 16.002 170.52 15.9378 170.521 15.8734C170.522 15.8071 170.509 15.7414 170.482 15.6809C170.454 15.6204 170.414 15.5668 170.364 15.5238C170.255 15.4289 170.114 15.3789 169.969 15.384C169.882 15.3844 169.796 15.3986 169.714 15.4259C169.628 15.4539 169.545 15.4901 169.466 15.5341C169.31 15.6226 169.172 15.7403 169.06 15.8809C168.962 15.9884 168.888 16.1155 168.843 16.2538C168.795 16.3984 168.756 16.5456 168.725 16.6947L168.326 18.5592H167.727L168.161 16.4971C168.193 16.3572 168.22 16.2267 168.241 16.1055C168.257 16.0246 168.267 15.9427 168.273 15.8604C168.276 15.7963 168.267 15.7322 168.244 15.6721C168.222 15.6119 168.188 15.557 168.143 15.5108C168.04 15.4212 167.906 15.3759 167.77 15.3849C167.598 15.3873 167.43 15.4356 167.284 15.5248C167.133 15.6098 166.998 15.7184 166.882 15.8464C166.769 15.9481 166.681 16.0736 166.624 16.2137C166.57 16.3607 166.528 16.5115 166.498 16.6649L166.092 18.5592H165.505L166.267 14.9449L166.817 14.9496Z" fill="white"></path><path d="M172.042 15.5192C172.135 15.3749 172.255 15.2501 172.396 15.1519C172.54 15.0522 172.701 14.9789 172.871 14.9357C173.051 14.8886 173.237 14.8651 173.423 14.8657C173.592 14.865 173.76 14.8791 173.926 14.9077C174.074 14.9316 174.216 14.9811 174.346 15.0541C174.465 15.1209 174.565 15.2172 174.636 15.3337C174.713 15.4711 174.751 15.6273 174.745 15.7849C174.744 15.8966 174.731 16.0079 174.706 16.1168C174.681 16.2352 174.656 16.3443 174.633 16.4421L174.402 17.435C174.388 17.5095 174.368 17.5934 174.342 17.6867C174.318 17.7732 174.305 17.8625 174.304 17.9523C174.297 18.0149 174.315 18.0776 174.353 18.1276C174.37 18.1438 174.39 18.1565 174.411 18.1649C174.433 18.1732 174.456 18.177 174.479 18.1761C174.511 18.1753 174.543 18.1693 174.572 18.1584L174.666 18.1276L174.572 18.5676C174.514 18.5898 174.454 18.6073 174.393 18.6198C174.332 18.6352 174.27 18.6437 174.207 18.645C174.139 18.6501 174.071 18.6408 174.006 18.6179C173.942 18.5949 173.883 18.5587 173.834 18.5117C173.791 18.4607 173.76 18.4006 173.744 18.336C173.728 18.2714 173.727 18.2039 173.741 18.1388L173.727 18.1248C173.605 18.2892 173.445 18.4211 173.261 18.5089C173.025 18.6075 172.77 18.653 172.515 18.6422C172.37 18.6432 172.225 18.6254 172.084 18.589C171.958 18.5572 171.839 18.4976 171.738 18.4147C171.637 18.329 171.557 18.2212 171.504 18.0996C171.442 17.9505 171.412 17.7896 171.417 17.6279C171.404 17.4074 171.464 17.1887 171.588 17.0061C171.702 16.8569 171.853 16.74 172.026 16.6668C172.213 16.5868 172.411 16.5338 172.613 16.5093C172.827 16.4813 173.035 16.458 173.235 16.4393C173.393 16.4254 173.529 16.4104 173.644 16.3937C173.741 16.3819 173.835 16.3548 173.924 16.3135C173.994 16.2797 174.052 16.2233 174.088 16.1531C174.126 16.0626 174.144 15.9644 174.14 15.866C174.144 15.7812 174.119 15.6975 174.07 15.6283C174.023 15.5678 173.964 15.5188 173.896 15.4847C173.821 15.4489 173.742 15.4244 173.661 15.412C173.579 15.3982 173.496 15.3911 173.413 15.3906C173.301 15.3907 173.19 15.4026 173.081 15.426C172.976 15.4474 172.875 15.4861 172.783 15.5407C172.696 15.5931 172.62 15.6622 172.56 15.7439C172.497 15.8319 172.456 15.934 172.441 16.0413H171.847C171.872 15.8548 171.939 15.6764 172.042 15.5192ZM172.21 17.998C172.345 18.0826 172.502 18.1263 172.661 18.1239C173.132 18.1239 173.47 17.9654 173.675 17.6484C173.771 17.5167 173.839 17.3666 173.874 17.2075C173.909 17.049 173.948 16.8859 173.99 16.7181H173.973C173.877 16.7835 173.768 16.8277 173.654 16.8477C173.526 16.8728 173.39 16.8933 173.246 16.9073C173.101 16.9213 172.955 16.9381 172.809 16.9595C172.673 16.9773 172.541 17.0114 172.413 17.0611C172.303 17.1033 172.205 17.1714 172.127 17.2597C172.049 17.3636 172.009 17.4915 172.015 17.6214C172.012 17.6952 172.028 17.7687 172.062 17.8342C172.096 17.8998 172.148 17.955 172.21 17.9943V17.998Z" fill="white"></path><path d="M177.38 14.9495L177.268 15.4734H176.548L176.101 17.5988C176.101 17.6408 176.091 17.6809 176.087 17.7182C176.082 17.7574 176.079 17.797 176.079 17.8365C176.076 17.8757 176.084 17.9151 176.103 17.9494C176.123 17.9837 176.152 18.0113 176.188 18.0286C176.265 18.0652 176.35 18.0834 176.436 18.0817C176.495 18.0816 176.553 18.0757 176.611 18.064C176.667 18.0518 176.723 18.0366 176.779 18.0183L176.674 18.5637C176.604 18.573 176.534 18.5814 176.464 18.5879C176.395 18.5954 176.325 18.5991 176.255 18.5991C176.149 18.5996 176.044 18.5912 175.94 18.5739C175.849 18.5596 175.762 18.528 175.684 18.4807C175.612 18.4365 175.552 18.3754 175.51 18.3027C175.462 18.2147 175.439 18.1155 175.444 18.0155C175.443 17.9666 175.447 17.9176 175.454 17.8692C175.46 17.8226 175.469 17.7713 175.478 17.7154L175.954 15.4706H175.346L175.458 14.9467H176.065L176.289 13.8765H176.884L176.66 14.9467L177.38 14.9495Z" fill="white"></path><path d="M178.634 14.949L177.879 18.5633H177.292L178.038 14.949H178.634ZM178.168 14.2965L178.322 13.5693H178.923L178.77 14.2965H178.168Z" fill="white"></path><path d="M179.124 16.285C179.21 16.0196 179.346 15.7728 179.523 15.5579C179.698 15.3479 179.915 15.1765 180.159 15.0545C180.424 14.9263 180.715 14.8624 181.009 14.868C181.498 14.868 181.871 14.9948 182.127 15.2484C182.383 15.5019 182.512 15.8748 182.512 16.367C182.513 16.6566 182.468 16.9444 182.379 17.22C182.295 17.4857 182.162 17.7333 181.987 17.9499C181.816 18.1616 181.601 18.3344 181.358 18.4571C181.095 18.5858 180.805 18.6497 180.513 18.6435C180.294 18.6466 180.077 18.6086 179.873 18.5317C179.694 18.4643 179.532 18.3592 179.397 18.2234C179.262 18.0876 179.159 17.9244 179.093 17.7449C179.021 17.5512 178.986 17.3462 178.988 17.1398C178.988 16.8495 179.034 16.5608 179.124 16.285ZM179.834 17.8511C180.002 18.0326 180.25 18.1237 180.58 18.1243C180.785 18.1285 180.986 18.07 181.157 17.9565C181.323 17.8441 181.465 17.7003 181.576 17.5332C181.691 17.3614 181.779 17.1727 181.835 16.9739C181.891 16.79 181.92 16.5992 181.922 16.4071C181.923 16.2724 181.904 16.1383 181.866 16.0091C181.833 15.889 181.774 15.778 181.692 15.684C181.61 15.5901 181.509 15.5158 181.394 15.4665C181.261 15.4101 181.116 15.3828 180.971 15.3863C180.759 15.3819 180.549 15.4403 180.37 15.5541C180.199 15.6648 180.051 15.8087 179.936 15.9774C179.82 16.1485 179.731 16.3373 179.675 16.5367C179.618 16.7275 179.589 16.9251 179.587 17.124C179.571 17.3893 179.66 17.6503 179.834 17.8511Z" fill="white"></path><path d="M184.182 14.9496L184.07 15.495H184.084C184.228 15.29 184.423 15.1268 184.651 15.0223C184.877 14.9185 185.122 14.8651 185.371 14.8657C185.711 14.8657 185.964 14.9403 186.129 15.0895C186.294 15.2386 186.377 15.4735 186.377 15.7952C186.375 15.8982 186.366 16.001 186.349 16.1028C186.331 16.2286 186.306 16.3619 186.273 16.5018L185.832 18.5639H185.238L185.704 16.4524C185.704 16.4151 185.715 16.3722 185.725 16.3228C185.734 16.2734 185.743 16.223 185.753 16.169C185.762 16.1149 185.77 16.0646 185.778 16.0152C185.784 15.9747 185.787 15.9339 185.788 15.893C185.793 15.8188 185.778 15.7445 185.746 15.6777C185.713 15.6108 185.663 15.5536 185.602 15.5118C185.468 15.427 185.312 15.3845 185.154 15.3896C184.985 15.3913 184.818 15.4321 184.668 15.509C184.514 15.583 184.376 15.6847 184.259 15.8091C184.152 15.9026 184.066 16.0184 184.008 16.1485C183.946 16.2824 183.897 16.4216 183.86 16.5642L183.441 18.5639H182.854L183.609 14.9496H184.182Z" fill="white"></path></g></svg> 