<?xml version="1.0" encoding="UTF-8"?> <svg xmlns="http://www.w3.org/2000/svg" width="62" height="10" viewBox="0 0 62 10" fill="none"><g clip-path="url(#clip0_275_3)"><path d="M5.34997 0.778791L6.48568 3.07165C6.51152 3.12985 6.55215 3.18026 6.60353 3.21786C6.65492 3.25545 6.71526 3.27893 6.77854 3.28593L9.28566 3.65736C9.3583 3.66669 9.42673 3.69648 9.48302 3.74326C9.5393 3.79003 9.58116 3.85186 9.60359 3.92151C9.62609 3.99117 9.62823 4.06578 9.60988 4.13663C9.59159 4.20749 9.55345 4.27166 9.49995 4.32165L7.6928 6.11451C7.64673 6.1576 7.61209 6.21153 7.59216 6.27142C7.57216 6.3313 7.56752 6.39522 7.57852 6.45736L8.01423 8.97876C8.02688 9.05126 8.01888 9.12576 7.99123 9.1939C7.96359 9.26205 7.91738 9.32105 7.8578 9.36426C7.7983 9.4074 7.7278 9.43298 7.65445 9.43812C7.58109 9.44319 7.50773 9.42762 7.4428 9.39305L5.18568 8.20019C5.12789 8.17183 5.06435 8.15712 4.99997 8.15712C4.93558 8.15712 4.87205 8.17183 4.81425 8.20019L2.55711 9.39305C2.49218 9.42762 2.41885 9.44319 2.34549 9.43812C2.27213 9.43298 2.20166 9.4074 2.14213 9.36426C2.08258 9.32105 2.03635 9.26205 2.0087 9.1939C1.98105 9.12576 1.97307 9.05126 1.98568 8.97876L2.4214 6.42879C2.43244 6.36665 2.42777 6.30273 2.40781 6.24285C2.38785 6.18296 2.35323 6.12903 2.30711 6.08593L0.478543 4.32165C0.424445 4.27029 0.3864 4.20434 0.369017 4.13181C0.351634 4.05926 0.35566 3.98323 0.380605 3.91293C0.405551 3.84263 0.450346 3.78108 0.509565 3.73571C0.568784 3.69036 0.639886 3.66313 0.714255 3.65736L3.2214 3.28593C3.28468 3.27893 3.34503 3.25545 3.39641 3.21786C3.4478 3.18026 3.48843 3.12985 3.51425 3.07165L4.64997 0.778791C4.6809 0.712013 4.73028 0.655475 4.7923 0.615852C4.85432 0.576229 4.92638 0.555176 4.99997 0.555176C5.07356 0.555176 5.14563 0.576229 5.20764 0.615852C5.26965 0.655475 5.31904 0.712013 5.34997 0.778791Z" fill="#FFDD2D"></path></g><g clip-path="url(#clip1_275_3)"><path d="M18.35 0.778791L19.4857 3.07165C19.5115 3.12985 19.5521 3.18026 19.6035 3.21786C19.6549 3.25545 19.7153 3.27893 19.7785 3.28593L22.2857 3.65736C22.3583 3.66669 22.4267 3.69648 22.483 3.74326C22.5393 3.79003 22.5812 3.85186 22.6036 3.92151C22.6261 3.99117 22.6282 4.06578 22.6099 4.13663C22.5916 4.20749 22.5534 4.27166 22.4999 4.32165L20.6928 6.11451C20.6467 6.1576 20.6121 6.21153 20.5922 6.27142C20.5722 6.3313 20.5675 6.39522 20.5785 6.45736L21.0142 8.97876C21.0269 9.05126 21.0189 9.12576 20.9912 9.1939C20.9636 9.26205 20.9174 9.32105 20.8578 9.36426C20.7983 9.4074 20.7278 9.43298 20.6544 9.43812C20.5811 9.44319 20.5077 9.42762 20.4428 9.39305L18.1857 8.20019C18.1279 8.17183 18.0644 8.15712 18 8.15712C17.9356 8.15712 17.8721 8.17183 17.8143 8.20019L15.5571 9.39305C15.4922 9.42762 15.4189 9.44319 15.3455 9.43812C15.2721 9.43298 15.2017 9.4074 15.1421 9.36426C15.0826 9.32105 15.0364 9.26205 15.0087 9.1939C14.981 9.12576 14.9731 9.05126 14.9857 8.97876L15.4214 6.42879C15.4324 6.36665 15.4278 6.30273 15.4078 6.24285C15.3879 6.18296 15.3532 6.12903 15.3071 6.08593L13.4785 4.32165C13.4244 4.27029 13.3864 4.20434 13.369 4.13181C13.3516 4.05926 13.3557 3.98323 13.3806 3.91293C13.4056 3.84263 13.4503 3.78108 13.5096 3.73571C13.5688 3.69036 13.6399 3.66313 13.7143 3.65736L16.2214 3.28593C16.2847 3.27893 16.345 3.25545 16.3964 3.21786C16.4478 3.18026 16.4884 3.12985 16.5143 3.07165L17.65 0.778791C17.6809 0.712013 17.7303 0.655475 17.7923 0.615852C17.8543 0.576229 17.9264 0.555176 18 0.555176C18.0736 0.555176 18.1456 0.576229 18.2076 0.615852C18.2697 0.655475 18.319 0.712013 18.35 0.778791Z" fill="#FFDD2D"></path></g><g clip-path="url(#clip2_275_3)"><path d="M31.35 0.778791L32.4857 3.07165C32.5115 3.12985 32.5521 3.18026 32.6035 3.21786C32.6549 3.25545 32.7153 3.27893 32.7785 3.28593L35.2857 3.65736C35.3583 3.66669 35.4267 3.69648 35.483 3.74326C35.5393 3.79003 35.5812 3.85186 35.6036 3.92151C35.6261 3.99117 35.6282 4.06578 35.6099 4.13663C35.5916 4.20749 35.5534 4.27166 35.4999 4.32165L33.6928 6.11451C33.6467 6.1576 33.6121 6.21153 33.5922 6.27142C33.5722 6.3313 33.5675 6.39522 33.5785 6.45736L34.0142 8.97876C34.0269 9.05126 34.0189 9.12576 33.9912 9.1939C33.9636 9.26205 33.9174 9.32105 33.8578 9.36426C33.7983 9.4074 33.7278 9.43298 33.6544 9.43812C33.5811 9.44319 33.5077 9.42762 33.4428 9.39305L31.1857 8.20019C31.1279 8.17183 31.0644 8.15712 31 8.15712C30.9356 8.15712 30.8721 8.17183 30.8143 8.20019L28.5571 9.39305C28.4922 9.42762 28.4189 9.44319 28.3455 9.43812C28.2721 9.43298 28.2017 9.4074 28.1421 9.36426C28.0826 9.32105 28.0364 9.26205 28.0087 9.1939C27.981 9.12576 27.9731 9.05126 27.9857 8.97876L28.4214 6.42879C28.4324 6.36665 28.4278 6.30273 28.4078 6.24285C28.3879 6.18296 28.3532 6.12903 28.3071 6.08593L26.4785 4.32165C26.4244 4.27029 26.3864 4.20434 26.369 4.13181C26.3516 4.05926 26.3557 3.98323 26.3806 3.91293C26.4056 3.84263 26.4503 3.78108 26.5096 3.73571C26.5688 3.69036 26.6399 3.66313 26.7143 3.65736L29.2214 3.28593C29.2847 3.27893 29.345 3.25545 29.3964 3.21786C29.4478 3.18026 29.4884 3.12985 29.5143 3.07165L30.65 0.778791C30.6809 0.712013 30.7303 0.655475 30.7923 0.615852C30.8543 0.576229 30.9264 0.555176 31 0.555176C31.0736 0.555176 31.1456 0.576229 31.2076 0.615852C31.2697 0.655475 31.319 0.712013 31.35 0.778791Z" fill="#FFDD2D"></path></g><g clip-path="url(#clip3_275_3)"><path d="M44.35 0.778791L45.4857 3.07165C45.5115 3.12985 45.5521 3.18026 45.6035 3.21786C45.6549 3.25545 45.7153 3.27893 45.7785 3.28593L48.2857 3.65736C48.3583 3.66669 48.4267 3.69648 48.483 3.74326C48.5393 3.79003 48.5812 3.85186 48.6036 3.92151C48.6261 3.99117 48.6282 4.06578 48.6099 4.13663C48.5916 4.20749 48.5534 4.27166 48.4999 4.32165L46.6928 6.11451C46.6467 6.1576 46.6121 6.21153 46.5922 6.27142C46.5722 6.3313 46.5675 6.39522 46.5785 6.45736L47.0142 8.97876C47.0269 9.05126 47.0189 9.12576 46.9912 9.1939C46.9636 9.26205 46.9174 9.32105 46.8578 9.36426C46.7983 9.4074 46.7278 9.43298 46.6544 9.43812C46.5811 9.44319 46.5077 9.42762 46.4428 9.39305L44.1857 8.20019C44.1279 8.17183 44.0644 8.15712 44 8.15712C43.9356 8.15712 43.8721 8.17183 43.8143 8.20019L41.5571 9.39305C41.4922 9.42762 41.4189 9.44319 41.3455 9.43812C41.2721 9.43298 41.2017 9.4074 41.1421 9.36426C41.0826 9.32105 41.0364 9.26205 41.0087 9.1939C40.981 9.12576 40.9731 9.05126 40.9857 8.97876L41.4214 6.42879C41.4324 6.36665 41.4278 6.30273 41.4078 6.24285C41.3879 6.18296 41.3532 6.12903 41.3071 6.08593L39.4785 4.32165C39.4244 4.27029 39.3864 4.20434 39.369 4.13181C39.3516 4.05926 39.3557 3.98323 39.3806 3.91293C39.4056 3.84263 39.4503 3.78108 39.5096 3.73571C39.5688 3.69036 39.6399 3.66313 39.7143 3.65736L42.2214 3.28593C42.2847 3.27893 42.345 3.25545 42.3964 3.21786C42.4478 3.18026 42.4884 3.12985 42.5143 3.07165L43.65 0.778791C43.6809 0.712013 43.7303 0.655475 43.7923 0.615852C43.8543 0.576229 43.9264 0.555176 44 0.555176C44.0736 0.555176 44.1456 0.576229 44.2076 0.615852C44.2697 0.655475 44.319 0.712013 44.35 0.778791Z" fill="#FFDD2D"></path></g><g clip-path="url(#clip4_275_3)"><path d="M57.35 0.778791L58.4857 3.07165C58.5115 3.12985 58.5521 3.18026 58.6035 3.21786C58.6549 3.25545 58.7153 3.27893 58.7785 3.28593L61.2857 3.65736C61.3583 3.66669 61.4267 3.69648 61.483 3.74326C61.5393 3.79003 61.5812 3.85186 61.6036 3.92151C61.6261 3.99117 61.6282 4.06578 61.6099 4.13663C61.5916 4.20749 61.5534 4.27166 61.4999 4.32165L59.6928 6.11451C59.6467 6.1576 59.6121 6.21153 59.5922 6.27142C59.5722 6.3313 59.5675 6.39522 59.5785 6.45736L60.0142 8.97876C60.0269 9.05126 60.0189 9.12576 59.9912 9.1939C59.9636 9.26205 59.9174 9.32105 59.8578 9.36426C59.7983 9.4074 59.7278 9.43298 59.6544 9.43812C59.5811 9.44319 59.5077 9.42762 59.4428 9.39305L57.1857 8.20019C57.1279 8.17183 57.0644 8.15712 57 8.15712C56.9356 8.15712 56.8721 8.17183 56.8143 8.20019L54.5571 9.39305C54.4922 9.42762 54.4189 9.44319 54.3455 9.43812C54.2721 9.43298 54.2017 9.4074 54.1421 9.36426C54.0826 9.32105 54.0364 9.26205 54.0087 9.1939C53.981 9.12576 53.9731 9.05126 53.9857 8.97876L54.4214 6.42879C54.4324 6.36665 54.4278 6.30273 54.4078 6.24285C54.3879 6.18296 54.3532 6.12903 54.3071 6.08593L52.4785 4.32165C52.4244 4.27029 52.3864 4.20434 52.369 4.13181C52.3516 4.05926 52.3557 3.98323 52.3806 3.91293C52.4056 3.84263 52.4503 3.78108 52.5096 3.73571C52.5688 3.69036 52.6399 3.66313 52.7143 3.65736L55.2214 3.28593C55.2847 3.27893 55.345 3.25545 55.3964 3.21786C55.4478 3.18026 55.4884 3.12985 55.5143 3.07165L56.65 0.778791C56.6809 0.712013 56.7303 0.655475 56.7923 0.615852C56.8543 0.576229 56.9264 0.555176 57 0.555176C57.0736 0.555176 57.1456 0.576229 57.2076 0.615852C57.2697 0.655475 57.319 0.712013 57.35 0.778791Z" fill="#FFDD2D"></path></g><defs><clipPath id="clip0_275_3"><rect width="10" height="10" fill="white"></rect></clipPath><clipPath id="clip1_275_3"><rect width="10" height="10" fill="white" transform="translate(13)"></rect></clipPath><clipPath id="clip2_275_3"><rect width="10" height="10" fill="white" transform="translate(26)"></rect></clipPath><clipPath id="clip3_275_3"><rect width="10" height="10" fill="white" transform="translate(39)"></rect></clipPath><clipPath id="clip4_275_3"><rect width="10" height="10" fill="white" transform="translate(52)"></rect></clipPath></defs></svg> 