<?xml version="1.0" encoding="UTF-8"?> <svg xmlns="http://www.w3.org/2000/svg" width="12" height="12" viewBox="0 0 12 12" fill="none"><g clip-path="url(#clip0_254_1301)"><path d="M6.00014 11.5716C9.0772 11.5716 11.5716 9.0772 11.5716 6.00014C11.5716 2.92313 9.0772 0.428711 6.00014 0.428711C2.92313 0.428711 0.428711 2.92313 0.428711 6.00014C0.428711 9.0772 2.92313 11.5716 6.00014 11.5716Z" stroke="white" stroke-linecap="round" stroke-linejoin="round"></path><path d="M4.71484 8.57178H7.28627" stroke="white" stroke-linecap="round" stroke-linejoin="round"></path><path d="M5.99972 8.57178V5.57178H5.14258" stroke="white" stroke-linecap="round" stroke-linejoin="round"></path><path d="M6.00042 3.64293C5.88207 3.64293 5.78613 3.54699 5.78613 3.42864C5.78613 3.3103 5.88207 3.21436 6.00042 3.21436" stroke="white" stroke-linecap="round" stroke-linejoin="round"></path><path d="M6 3.64293C6.11835 3.64293 6.21429 3.54699 6.21429 3.42864C6.21429 3.3103 6.11835 3.21436 6 3.21436" stroke="white" stroke-linecap="round" stroke-linejoin="round"></path></g><defs><clipPath id="clip0_254_1301"><rect width="12" height="12" fill="white"></rect></clipPath></defs></svg> 