<?xml version="1.0" encoding="UTF-8"?> <svg xmlns="http://www.w3.org/2000/svg" width="25" height="25" viewBox="0 0 25 25" fill="none"><path d="M12.2373 1.64404C12.5738 1.63556 12.9088 1.69036 13.2236 1.81006C13.5474 1.93322 13.8435 2.12047 14.0938 2.35986C14.344 2.59927 14.5442 2.8866 14.6816 3.20459C14.819 3.52245 14.8907 3.86519 14.8936 4.21143V8.74658H22.0664C22.4418 8.75876 22.8108 8.85029 23.1484 9.01514L23.3945 9.15186C23.6322 9.30084 23.845 9.48723 24.0254 9.70361C24.2659 9.99225 24.4427 10.3283 24.5439 10.6899C24.6452 11.0517 24.6691 11.4316 24.6133 11.8032L24.6123 11.8062L23.1953 20.9478C23.1124 21.5801 22.8038 22.1617 22.3262 22.5845C21.9039 22.9581 21.3747 23.1852 20.8174 23.2368L20.5762 23.2485H8.9541V23.2476C8.30426 23.2497 7.66293 23.1002 7.08105 22.8101H7.08008L5.83203 22.186H1.86816C1.51775 22.186 1.17913 22.0647 0.910156 21.8442L0.799805 21.7437C0.516556 21.4604 0.357518 21.0757 0.357422 20.6753V11.2681C0.357438 10.8675 0.516608 10.483 0.799805 10.1997C1.0831 9.91644 1.46747 9.75734 1.86816 9.75732H5.71973L10.0361 2.85693C10.2667 2.48282 10.59 2.17423 10.9746 1.96143C11.3609 1.74771 11.7969 1.63769 12.2383 1.64209L12.2373 1.64404ZM12.2256 2.89209C12 2.88984 11.7774 2.94604 11.5801 3.05518C11.3827 3.16436 11.2166 3.32287 11.0986 3.51514L11.0957 3.52002L6.69238 10.5591V21.2183L7.63867 21.6919L7.79297 21.7632C8.1585 21.9196 8.55323 22.0001 8.95215 21.9985H20.5752C20.9151 21.9981 21.2436 21.8731 21.498 21.6479C21.7525 21.4226 21.9154 21.1119 21.957 20.7749C21.9578 20.7685 21.959 20.7617 21.96 20.7554L23.377 11.6177L23.3916 11.4692C23.3981 11.3204 23.3811 11.1709 23.3408 11.0269C23.2871 10.8349 23.193 10.6564 23.0654 10.5034C22.9378 10.3503 22.7787 10.2266 22.5996 10.1392C22.4654 10.0736 22.3221 10.0298 22.1748 10.0093L22.0264 9.99658H14.2686C13.9236 9.99637 13.6436 9.71661 13.6436 9.37158V4.22119C13.642 4.0421 13.6052 3.86508 13.5342 3.70068C13.4809 3.57738 13.4092 3.46258 13.3223 3.36084L13.2295 3.26318C13.0999 3.13932 12.9468 3.04273 12.7793 2.979C12.6118 2.91529 12.433 2.88562 12.2539 2.89209C12.2445 2.89243 12.235 2.89218 12.2256 2.89209ZM1.86816 11.0073C1.79904 11.0073 1.73251 11.0346 1.68359 11.0835C1.63481 11.1324 1.60744 11.199 1.60742 11.2681V20.6753C1.60752 20.7442 1.63484 20.8111 1.68359 20.8599L1.72363 20.8921C1.76602 20.9203 1.81621 20.936 1.86816 20.936H5.44141V11.0073H1.86816Z" fill="url(#paint0_linear_254_1331)"></path><defs><linearGradient id="paint0_linear_254_1331" x1="12.5001" y1="1.64209" x2="12.5001" y2="23.2487" gradientUnits="userSpaceOnUse"><stop stop-color="white"></stop><stop offset="1" stop-color="white" stop-opacity="0.3"></stop></linearGradient></defs></svg> 