<?xml version="1.0" encoding="UTF-8"?> <svg xmlns="http://www.w3.org/2000/svg" width="1191" height="124" viewBox="0 0 1191 124" fill="none"><path d="M1191 19.0499V43.2152C1191 53.6222 1182.53 62.0889 1172.13 62.0889V79.5514H1115.51V123.649H1096.63V19.0499C1096.63 8.64295 1105.1 0.17627 1115.51 0.17627H1172.13C1182.53 0.17627 1191 8.64295 1191 19.0499ZM1115.51 17.8152V61.9125H1172.13V17.8152H1115.51ZM1191 98.4251V123.649H1172.13V79.5514C1182.53 79.5514 1191 88.0181 1191 98.4251Z" fill="white" fill-opacity="0.05"></path><path d="M1082.6 0.17639V17.8153H1016.45V52.9168C1006.04 52.9168 997.576 44.4501 997.576 34.0431V18.8736C997.576 8.46668 1006.04 0 1016.45 0V0.17639H1082.6ZM1078.01 52.9168V70.7321H1016.45V52.9168H1078.01ZM997.576 104.775V89.6057C997.576 79.1988 1006.04 70.7321 1016.45 70.7321V106.01H1082.6V123.649H1016.45C1006.04 123.649 997.576 115.182 997.576 104.775Z" fill="white" fill-opacity="0.05"></path><path d="M910.335 0.17627V53.093H964.662V70.732H910.335V123.649H891.461V0.17627H910.335ZM983.536 0.17627V34.2194C983.536 44.6264 975.069 53.093 964.662 53.093V0.17627H983.536ZM983.536 89.6056V123.649H964.662V70.732C975.069 70.732 983.536 79.1986 983.536 89.6056Z" fill="white" fill-opacity="0.05"></path><path d="M825.478 0.17627H877.336V17.8152H807.663C807.663 8.11378 815.6 0.17627 825.478 0.17627ZM788.789 104.599V17.8152H807.663V106.01H877.336V123.649H807.663V123.472C797.256 123.472 788.789 115.006 788.789 104.599Z" fill="white" fill-opacity="0.05"></path><path d="M755.758 61.9125V17.8152H774.632V123.649H755.758V79.5514H699.137V123.649H680.264V19.0499C680.264 8.64295 688.73 0.17627 699.137 0.17627H755.758V17.8152H699.137V61.9125H755.758Z" fill="white" fill-opacity="0.05"></path><path d="M666.104 19.0499V43.2152C666.104 53.6222 657.637 62.0889 647.23 62.0889V79.5514H590.609V123.649H571.735V19.0499C571.735 8.64295 580.202 0.17627 590.609 0.17627H647.23C657.637 0.17627 666.104 8.64295 666.104 19.0499ZM590.609 17.8152V61.9125H647.23V17.8152H590.609ZM666.104 98.4251V123.649H647.23V79.5514C657.637 79.5514 666.104 88.0181 666.104 98.4251Z" fill="white" fill-opacity="0.05"></path><path d="M468.596 0.17627H488.88C498.582 0.17627 506.343 7.9374 506.343 17.6388V17.8152H468.596V0.17627ZM525.217 17.8152C525.217 8.11378 533.154 0.17627 542.856 0.17627H562.964V17.8152H525.217ZM506.343 123.649V17.8152H525.217V123.649H506.343Z" fill="white" fill-opacity="0.05"></path><path d="M345.475 0.17627H402.096C412.503 0.17627 420.969 8.64295 420.969 19.0499V104.775C420.969 115.182 412.503 123.649 402.096 123.649H345.475V106.01H402.096V17.8152H345.475V0.17627ZM326.425 87.1362V36.6888C326.425 26.2819 334.891 17.8152 345.298 17.8152V106.01C334.891 106.01 326.425 97.5431 326.425 87.1362Z" fill="white" fill-opacity="0.05"></path><path d="M293.485 106.01V0H312.358V104.599C312.358 115.006 303.892 123.472 293.485 123.472V123.649H265.263V106.01H293.485ZM265.263 18.8736V105.834H246.389V17.6389H218.167V123.649H199.293V18.8736C199.293 8.29029 207.76 0.17639 218.167 0.17639H246.389C256.796 0.17639 265.263 8.29029 265.263 18.8736Z" fill="white" fill-opacity="0.05"></path><path d="M166.384 123.649V0.529175H185.257V123.649H166.384Z" fill="white" fill-opacity="0.05"></path><path d="M103.893 0.17627H130.704V17.8152H103.893V104.775C103.893 115.182 95.4266 123.649 85.0196 123.649H62.7946C52.2112 123.649 43.9209 115.182 43.9209 104.775V17.8152H18.8736V123.649H0V19.0499C0 8.64295 8.46668 0.17627 18.8736 0.17627H43.9209C54.3279 0.17627 62.7946 8.64295 62.7946 19.0499V106.01H85.0196V19.0499C85.0196 8.64295 93.3099 0.17627 103.893 0.17627ZM130.704 123.649V17.8152H149.578V123.649H130.704Z" fill="white" fill-opacity="0.05"></path></svg> 