<?xml version="1.0" encoding="UTF-8"?> <svg xmlns="http://www.w3.org/2000/svg" width="40" height="16" viewBox="0 0 40 16" fill="none"><path fill-rule="evenodd" clip-rule="evenodd" d="M19.9649 1.30769V2.61538H21.3859H22.8068V1.30769V0H21.3859H19.9649V1.30769ZM13.5438 3.46415C11.6375 3.67192 10.1252 5.00985 9.67734 6.88461C9.56378 7.35992 9.52809 7.68404 9.52903 8.23077C9.53007 8.82492 9.59608 9.28846 9.74922 9.77719C10.2512 11.3792 11.4403 12.4904 13.0596 12.8708C13.4443 12.9612 14.625 12.9722 15.0187 12.8892C16.3223 12.6141 17.4328 11.7991 18.0543 10.6613C18.1923 10.4087 18.4541 9.77558 18.4541 9.6945C18.4541 9.66662 17.9965 9.65385 16.9972 9.65385C15.9828 9.65385 15.5403 9.66638 15.5403 9.69515C15.5403 9.71788 15.4509 9.83665 15.3417 9.95904C14.7319 10.6427 13.4981 10.6788 12.8828 10.031C12.6387 9.77408 12.4658 9.43988 12.3943 9.08654L12.3689 8.96154H15.4634C17.7539 8.96154 18.5644 8.95008 18.5833 8.91738C18.6405 8.81838 18.6409 7.78965 18.5839 7.39112C18.3335 5.64119 17.2525 4.27185 15.6827 3.71623C15.0383 3.48815 14.2145 3.39108 13.5438 3.46415ZM4.55056 3.50223C3.7978 3.61073 3.10629 3.94681 2.60184 4.44931L2.41583 4.63462L2.22906 4.18269L2.04229 3.73077H1.02113H0V8.21154V12.6923H1.43686H2.87373L2.88653 10.0673C2.89786 7.73796 2.90617 7.41727 2.96035 7.22C3.09075 6.74496 3.32468 6.41912 3.66211 6.24262C3.92942 6.10281 4.44466 6.06904 4.70273 6.17442C5.05843 6.31965 5.28164 6.65423 5.35783 7.15638C5.38128 7.31096 5.39549 8.39627 5.39564 10.0485L5.39593 12.6932L6.84383 12.6831L8.29174 12.6731L8.30224 10.0192C8.31325 7.24323 8.29059 6.57919 8.16731 6.06388C7.9064 4.97311 7.25259 4.11604 6.39842 3.74492C5.88825 3.52331 5.11196 3.42135 4.55056 3.50223ZM28.6164 3.74938C28.0466 3.86281 27.6255 4.08958 27.2119 4.50585L27.0305 4.68846L26.8074 4.20962L26.5843 3.73077H25.6128H24.6414V8.21154V12.6923H26.0803H27.5192L27.5195 10.3942C27.5197 9.13027 27.5352 7.95273 27.554 7.77742C27.6142 7.218 27.8393 6.82961 28.2029 6.65811C28.4266 6.55258 28.8718 6.5 29.5418 6.5H30.1093V5.09615V3.69231L29.4887 3.69577C29.1469 3.69769 28.7551 3.72177 28.6164 3.74938ZM19.9378 8.20192L19.9469 12.6731H21.3859H22.8248L22.8339 8.20192L22.843 3.73077H21.3859H19.9287L19.9378 8.20192ZM30.3251 3.74296C30.3251 3.75012 31.0951 5.58062 32.0362 7.81069C32.9772 10.0408 33.7482 11.9015 33.7494 11.9456C33.7505 11.9897 33.6869 12.1715 33.6079 12.3495C33.2341 13.192 32.952 13.3462 31.7839 13.3462H31.1525V14.6731V16L31.8989 15.9998C32.7578 15.9995 33.1893 15.9434 33.6815 15.768C34.2128 15.5786 34.4981 15.3844 34.9504 14.904C35.4341 14.3902 35.7508 13.8942 36.1535 13.0192C36.3708 12.5471 39.8178 4.23323 39.9686 3.81731L40 3.73077H38.4451H36.8901L36.1189 6.02885C35.6947 7.29281 35.321 8.39554 35.2886 8.47938L35.2296 8.63185L35.127 8.34477C35.0706 8.18688 34.6738 7.08846 34.2452 5.90385L33.4659 3.75L31.8955 3.73996C31.0318 3.73446 30.3251 3.73581 30.3251 3.74296ZM13.5618 5.93692C13.0551 6.08438 12.6542 6.50235 12.4626 7.08281L12.4138 7.23077H14.1024H15.791L15.7181 7.03292C15.5104 6.46958 15.1168 6.08823 14.587 5.93688C14.3649 5.87346 13.7797 5.8735 13.5618 5.93692Z" fill="white"></path></svg> 