<?xml version="1.0" encoding="UTF-8"?> <svg xmlns="http://www.w3.org/2000/svg" width="25" height="25" viewBox="0 0 25 25" fill="none"><g clip-path="url(#clip0_254_1322)"><path d="M22.2344 0.357422C22.8698 0.357422 23.4794 0.610229 23.9287 1.05957C24.378 1.50889 24.6309 2.11848 24.6309 2.75391V8.06641L24.6182 8.73145C24.4943 12.0536 23.4302 15.2774 21.543 18.0254C19.5298 20.9566 16.675 23.2088 13.3555 24.4834L13.3545 24.4824C12.8002 24.6957 12.187 24.6959 11.6328 24.4824V24.4834C8.31327 23.2088 5.4584 20.9566 3.44531 18.0254C1.55803 15.2774 0.492954 12.0537 0.369141 8.73145L0.357422 8.06641V2.75391C0.357422 2.11846 0.610223 1.50891 1.05957 1.05957C1.50891 0.610237 2.11845 0.357422 2.75391 0.357422H22.2344ZM2.75391 1.60742C2.44998 1.60742 2.15829 1.72843 1.94336 1.94336C1.72845 2.15826 1.60742 2.44996 1.60742 2.75391V8.06641C1.60542 11.3693 2.60568 14.5957 4.47559 17.3184C6.3454 20.0408 8.99678 22.1325 12.0801 23.3164H12.0811C12.3465 23.4188 12.6408 23.4186 12.9062 23.3164H12.9072C15.9907 22.1325 18.6427 20.0409 20.5127 17.3184C22.3825 14.5957 23.3828 11.3693 23.3809 8.06641V2.75391C23.3809 2.45001 23.2598 2.15827 23.0449 1.94336C22.83 1.72844 22.5383 1.60742 22.2344 1.60742H2.75391ZM17.3896 6.72852C17.619 6.47053 18.0145 6.44743 18.2725 6.67676C18.5298 6.9061 18.5532 7.30081 18.3242 7.55859L11.1807 15.5947C10.9647 15.837 10.5987 15.8743 10.3389 15.6797L6.76758 13.001C6.4916 12.794 6.43591 12.4021 6.64258 12.126C6.84968 11.8498 7.24144 11.7939 7.51758 12.001L10.6279 14.334L17.3896 6.72852Z" fill="url(#paint0_linear_254_1322)"></path></g><defs><linearGradient id="paint0_linear_254_1322" x1="12.4941" y1="0.357422" x2="12.4941" y2="24.6424" gradientUnits="userSpaceOnUse"><stop stop-color="white"></stop><stop offset="1" stop-color="white" stop-opacity="0.3"></stop></linearGradient><clipPath id="clip0_254_1322"><rect width="25" height="25" fill="white"></rect></clipPath></defs></svg> 