<?xml version="1.0" encoding="UTF-8"?> <svg xmlns="http://www.w3.org/2000/svg" width="25" height="25" viewBox="0 0 25 25" fill="none"><rect width="25" height="25" rx="5" fill="black"></rect><rect x="0.5" y="0.5" width="24" height="24" rx="4.5" stroke="white" stroke-opacity="0.1"></rect><path fill-rule="evenodd" clip-rule="evenodd" d="M7.51217 12.9138C7.51217 12.9138 7.51216 12.9138 7.51217 12.9138C7.59904 12.9465 7.69396 12.9791 7.79455 13.0135C7.69392 12.979 7.59907 12.9466 7.51217 12.9138ZM7.80651 13.0176C7.85407 13.0339 7.90286 13.0506 7.95263 13.068C8.38329 13.2402 8.83558 13.3642 9.32976 13.4368C9.36257 13.4416 9.39557 13.4462 9.42875 13.4505H9.43244C9.80876 13.4332 10.1543 13.285 10.428 13.0506C12.9293 11.2175 14.2237 10.2887 14.311 10.2639L14.3104 10.2642C14.335 10.2542 14.3615 10.2482 14.3891 10.2482C14.431 10.2482 14.4709 10.2609 14.5029 10.2836C14.5318 10.3196 14.5496 10.367 14.5496 10.4191C14.5496 10.4338 14.5484 10.4478 14.5459 10.4605C14.5109 10.6209 13.1408 12.0045 12.4263 12.726L12.3848 12.7679C12.1814 12.9733 12.0388 13.1176 12.0083 13.1521C11.9363 13.2332 11.8629 13.31 11.7924 13.3838C11.3555 13.841 11.0272 14.1845 11.8103 14.7439C12.1888 15.0148 12.4912 15.2386 12.7935 15.4622C13.1193 15.7032 13.4449 15.944 13.8652 16.2436C13.9731 16.3203 14.076 16.4001 14.1763 16.4778C14.5576 16.773 14.9001 17.0383 15.3232 16.9954C15.5691 16.9714 15.8231 16.7203 15.9522 15.9705C16.2572 14.1997 16.8573 10.3637 16.9957 8.78189V8.7879C16.9988 8.74517 17 8.70243 17 8.65903C17 8.56355 16.9932 8.47007 16.9809 8.38861V8.38661C16.9693 8.28018 16.9217 8.18556 16.8509 8.11817C16.8512 8.11839 16.8515 8.11862 16.8518 8.11885C16.7996 8.07889 16.7412 8.04789 16.6785 8.02768C16.6641 8.02303 16.6494 8.01896 16.6345 8.01547C16.6232 8.0128 16.6117 8.01049 16.6001 8.00853C16.5695 8.00335 16.5382 8.00067 16.5062 8.00067M14.3115 10.2636C14.3115 10.2636 14.3115 10.2636 14.3115 10.2636ZM7.95804 13.0699L7.99788 13.084C7.98454 13.0792 7.97125 13.0746 7.95804 13.0699Z" fill="white"></path><path fill-rule="evenodd" clip-rule="evenodd" d="M16.4927 8.00067H16.5062C16.5382 8.00067 16.5695 8.00335 16.6001 8.00853C16.6919 8.02405 16.7769 8.06207 16.85 8.11752C16.8503 8.11774 16.8506 8.11794 16.8509 8.11817C16.8512 8.11839 16.8515 8.11862 16.8518 8.11885L16.8509 8.11817L16.85 8.11752C16.8502 8.11777 16.8506 8.11791 16.8509 8.11817C16.9217 8.18556 16.9693 8.28018 16.9809 8.38661V8.38861C16.9932 8.47007 17 8.56355 17 8.65903C17 8.70243 16.9988 8.74517 16.9957 8.7879V8.78189C16.8573 10.3637 16.2572 14.1997 15.9522 15.9705C15.8231 16.7203 15.5691 16.9714 15.3232 16.9954C14.9001 17.0383 14.5576 16.773 14.1763 16.4778C14.076 16.4001 13.9731 16.3203 13.8652 16.2436C13.4449 15.944 13.1193 15.7032 12.7935 15.4622C12.4912 15.2386 12.1888 15.0148 11.8103 14.7439C11.0272 14.1845 11.3555 13.841 11.7924 13.3838C11.8629 13.31 11.9363 13.2332 12.0083 13.1521C12.0388 13.1176 12.1814 12.9733 12.3848 12.7679C12.3983 12.7542 12.4122 12.7402 12.4263 12.726C13.1408 12.0045 14.5109 10.6209 14.5459 10.4605C14.5484 10.4478 14.5496 10.4338 14.5496 10.4191C14.5496 10.367 14.5318 10.3196 14.5029 10.2836C14.4709 10.2609 14.431 10.2482 14.3891 10.2482C14.3619 10.2482 14.3357 10.2539 14.3115 10.2636C14.3113 10.2637 14.3112 10.2638 14.311 10.2639C14.3108 10.264 14.3106 10.2641 14.3104 10.2642L14.311 10.2639L14.3115 10.2636C14.3113 10.2637 14.3113 10.2638 14.311 10.2639C14.2237 10.2887 12.9293 11.2175 10.428 13.0506C10.1543 13.285 9.80876 13.4332 9.43244 13.4505H9.42875C9.39557 13.4462 9.36257 13.4416 9.32976 13.4368C8.83762 13.3645 8.38711 13.241 7.95804 13.0699C7.95716 13.0696 7.95624 13.0694 7.95536 13.069C7.95446 13.0686 7.95352 13.0684 7.95263 13.068C7.95254 13.068 7.95246 13.068 7.95238 13.0679C7.8986 13.0491 7.84572 13.031 7.79455 13.0135C7.59328 12.9446 7.41478 12.8834 7.2781 12.8129C7.09085 12.7163 6.98236 12.6021 7.00236 12.4263C7.02327 12.2464 7.2516 12.0624 7.68736 11.8741C10.3716 10.6041 12.1616 9.76699 13.0573 9.3628C14.0454 8.79324 15.191 8.32451 16.3956 8.0207L16.4921 8L16.4927 8.00067ZM7.99788 13.084C7.98454 13.0792 7.97125 13.0746 7.95804 13.0699L7.99788 13.084Z" fill="white"></path></svg> 