<?xml version="1.0" encoding="UTF-8"?> <svg xmlns="http://www.w3.org/2000/svg" width="25" height="25" viewBox="0 0 25 25" fill="none"><path d="M14.5693 2.99902C15.7009 2.99925 16.6479 3.78041 16.9072 4.83203H19.6523C20.5737 4.83203 21.4151 5.35681 21.8193 6.18457L24.3057 11.2754C24.3472 11.3607 24.3691 11.4549 24.3691 11.5498V12.0557C24.3693 12.0622 24.3711 12.0686 24.3711 12.0752C24.3711 12.0814 24.3693 12.0876 24.3691 12.0938V16.9082C24.3689 18.2394 23.2893 19.3193 21.958 19.3193H21.3848C21.3281 20.0591 21.0098 20.7578 20.4814 21.2861C19.8968 21.8706 19.104 22.1991 18.2773 22.1992C17.4506 22.1992 16.657 21.8707 16.0723 21.2861C15.6241 20.8379 15.3274 20.2667 15.2129 19.6523H10.0703C10.0551 19.6523 10.0403 19.6485 10.0254 19.6475C9.91155 20.2637 9.61445 20.8367 9.16504 21.2861C8.58042 21.8706 7.78762 22.1991 6.96094 22.1992C6.13415 22.1992 5.34055 21.8707 4.75586 21.2861C4.30796 20.8382 4.01115 20.2673 3.89648 19.6533H3.04004C1.70882 19.6533 0.62917 18.5734 0.628906 17.2422V5.41113C0.628906 4.07972 1.70865 2.99902 3.04004 2.99902H14.5693ZM6.96094 17.2139C6.46555 17.2139 5.98994 17.4105 5.63965 17.7607C5.28951 18.111 5.09277 18.5868 5.09277 19.082C5.09298 19.577 5.28966 20.0523 5.63965 20.4023C5.98992 20.7525 6.46567 20.9492 6.96094 20.9492C7.4561 20.9491 7.93105 20.7524 8.28125 20.4023C8.63135 20.0522 8.82791 19.5771 8.82812 19.082C8.82812 18.5868 8.63139 18.111 8.28125 17.7607C7.93105 17.4106 7.45613 17.2139 6.96094 17.2139ZM18.2773 17.2139C17.782 17.2139 17.3063 17.4105 16.9561 17.7607C16.9384 17.7784 16.9221 17.7972 16.9053 17.8154C16.8666 17.8891 16.8145 17.9532 16.751 18.0059C16.5306 18.3188 16.4092 18.6942 16.4092 19.082C16.4094 19.577 16.6061 20.0523 16.9561 20.4023C17.3063 20.7525 17.7821 20.9492 18.2773 20.9492C18.7725 20.9491 19.2475 20.7524 19.5977 20.4023C19.9478 20.0522 20.1443 19.5771 20.1445 19.082C20.1445 18.5868 19.9478 18.111 19.5977 17.7607C19.2475 17.4106 18.7725 17.2139 18.2773 17.2139ZM3.04004 4.25C2.399 4.25 1.87891 4.77008 1.87891 5.41113V17.2422C1.87917 17.883 2.39916 18.4033 3.04004 18.4033H3.91992C4.04777 17.8299 4.33399 17.2989 4.75586 16.877C5.34057 16.2922 6.13403 15.9639 6.96094 15.9639C7.78765 15.9639 8.58042 16.2924 9.16504 16.877C9.58833 17.3003 9.87476 17.8335 10.002 18.4092C10.0245 18.4067 10.0471 18.4023 10.0703 18.4023H15.2373C15.3269 18.0013 15.4921 17.6208 15.7295 17.2842V5.41113C15.7295 4.77024 15.2102 4.25026 14.5693 4.25H3.04004ZM16.9795 16.249C17.3833 16.0641 17.8248 15.9639 18.2773 15.9639C19.1041 15.9639 19.8968 16.2924 20.4814 16.877C20.8229 17.2184 21.0734 17.6321 21.2256 18.0811C21.2636 18.0738 21.3026 18.0693 21.3428 18.0693H21.958C22.5989 18.0693 23.1189 17.549 23.1191 16.9082V12.7002H16.9795V16.249ZM16.9795 11.4502H22.999L20.6953 6.7334C20.5007 6.33493 20.096 6.08203 19.6523 6.08203H16.9795V11.4502Z" fill="url(#paint0_linear_254_1310)"></path><defs><linearGradient id="paint0_linear_254_1310" x1="12.5" y1="2.99902" x2="12.5" y2="22.1992" gradientUnits="userSpaceOnUse"><stop stop-color="white"></stop><stop offset="1" stop-color="white" stop-opacity="0.3"></stop></linearGradient></defs></svg> 