<?xml version="1.0" encoding="UTF-8"?> <svg xmlns="http://www.w3.org/2000/svg" width="25" height="25" viewBox="0 0 25 25" fill="none"><rect width="25" height="25" rx="5" fill="black"></rect><rect x="0.5" y="0.5" width="24" height="24" rx="4.5" stroke="white" stroke-opacity="0.1"></rect><path d="M12.4941 8.70703C12.4941 8.70703 15.94 8.70712 16.7949 8.93848C17.2762 9.06365 17.6386 9.42809 17.7656 9.89844C18.0005 10.7329 18 12.4932 18 12.4932C18 12.5121 17.9992 14.2689 17.7656 15.1064C17.6386 15.5654 17.2762 15.9374 16.7949 16.0664C15.9401 16.294 12.4941 16.2939 12.4941 16.2939C12.4728 16.2939 9.05339 16.2933 8.20508 16.0664C7.73154 15.9374 7.36232 15.5654 7.22754 15.1064C7.00161 14.2689 7.00001 12.5121 7 12.4932C7 12.4932 7.00038 10.7329 7.22754 9.89844C7.36234 9.42818 7.73157 9.06363 8.20508 8.93848C9.05344 8.70784 12.4729 8.70703 12.4941 8.70703ZM11.3623 14.1123L14.207 12.5L11.3623 10.8877V14.1123Z" fill="white"></path></svg> 